<svg width="208" height="49" viewBox="0 0 208 49" fill="none" xmlns="http://www.w3.org/2000/svg">
<path d="M24.1361 6.71385C23.8913 6.55197 23.2954 6.45947 23.0275 6.82948H21.785C22.6765 5.1367 24.0391 5.63621 25.1661 5.87208C25.7712 5.98771 26.538 5.92759 27.0784 5.82121L26.8243 6.76935C26.8243 6.76935 23.4017 7.06998 23.1846 9.34552C23.0876 10.1965 23.6742 11.1215 24.7689 11.1215C25.2031 11.1215 25.6742 10.992 26.0022 10.5342H27.5311C27.1246 11.6118 26.1176 12.5044 24.7458 12.5044C22.8428 12.5044 21.6095 11.0244 21.7804 9.24377C21.9051 7.76374 23.4617 6.8896 24.1315 6.70922M24.5888 9.60452H26.0437V8.37888H24.5888V9.60452Z" fill="#E7AC6D"/>
<path d="M30.9816 10.6775C29.194 10.6775 29.0693 9.1466 29.0693 8.53609V3.77689H30.4966V8.62397C30.4966 9.04022 30.7322 9.26223 31.1017 9.26223H32.0162V10.6775H30.9862H30.9816Z" fill="#E7AC6D"/>
<path d="M33.8545 9.26224H31.9192V10.6775H33.8545V9.26224Z" fill="#E7AC6D"/>
<path d="M35.6929 9.26224H33.7576V10.6775H35.6929V9.26224Z" fill="#E7AC6D"/>
<path d="M37.5313 9.26224H35.5959V10.6775H37.5313V9.26224Z" fill="#E7AC6D"/>
<path d="M38.0302 8.02735C38.0625 6.38545 39.4667 5.66394 40.7415 5.66394C42.6769 5.66394 44.3258 7.22722 44.3258 9.26225H45.8871V10.6775H37.4343V9.26225H42.8801C42.8893 7.9441 42.0718 6.94046 40.7415 6.94046C40.0302 6.94046 39.4436 7.23647 39.3789 8.02735H38.0302ZM41.5591 12.5091H40.1133V11.2834H41.5591V12.5091Z" fill="#E7AC6D"/>
<path d="M46.3997 8.02269C46.4321 6.38541 47.8362 5.65927 49.1111 5.65927C51.0464 5.65927 52.6954 7.22717 52.6954 9.25758V10.6729H45.8455V9.25758H51.2497C51.2589 7.93943 50.4413 6.93579 49.1111 6.93579C48.3998 6.93579 47.8132 7.23642 47.7485 8.02269H46.3997Z" fill="#E7AC6D"/>
<path d="M62.52 7.18557C62.1135 7.18557 61.9657 7.58795 62.4877 7.89783C63.5408 8.52684 64.5385 8.9616 64.5293 10.1965C64.52 11.7413 63.1574 12.5183 62.0212 12.5183H58.8756C56.1966 12.5183 55.453 9.88662 56.58 8.19384L57.6839 8.9616C57.1528 9.60911 57.2498 11.0891 58.8017 11.0891H61.9288C62.5015 11.0891 63.0882 10.844 63.0651 10.1965C63.042 9.67386 62.5431 9.42873 61.5454 8.76735C60.3768 7.99033 60.6632 5.9368 62.5893 5.9368H66.3445V8.61934C66.3445 9.0356 66.5801 9.2576 66.9496 9.2576H67.8642V10.6729H66.8341C65.0466 10.6729 64.908 9.13735 64.908 8.53147V7.18095H62.5246L62.52 7.18557ZM60.072 13.1149H58.617V14.3406H60.072V13.1149ZM62.1782 13.1149H60.7232V14.3406H62.1782V13.1149Z" fill="#E7AC6D"/>
<path d="M71.1435 8.08749C70.8155 8.48062 70.3767 8.65175 69.8271 8.65175C69.0927 8.65175 68.2335 8.12912 68.2612 7.19485C68.3259 5.28932 70.2612 5.44657 72.5892 5.44657L72.58 8.53612C72.58 9.14201 72.4414 10.6775 70.6539 10.6775H67.804V9.26226H70.5384C70.9125 9.26226 71.1435 9.04026 71.1435 8.624V8.09212V8.08749ZM69.6331 7.00985C69.6331 7.40298 69.9287 7.68973 70.3352 7.68973C71.1204 7.68973 71.1527 6.81559 71.1527 6.25133C70.6539 6.24208 69.6331 6.22821 69.6331 7.00522M71.4529 4.50305H69.998V3.26816H71.4529V4.50305Z" fill="#E7AC6D"/>
<path d="M75.0467 11.1123C75.2915 11.1863 75.6334 11.2603 75.9705 11.2603C76.1922 11.2603 76.9821 11.2695 77.2361 10.6729H76.4371C75.0144 10.6729 73.929 9.60913 73.929 8.24473C73.929 6.88033 74.9082 5.93219 76.4371 5.93219H78.7466V9.253H80.2985V10.6683H78.7142C78.5202 12.1067 77.1807 12.5229 76.1599 12.4906C75.9059 12.4813 75.6056 12.4258 75.4163 12.3749L75.0421 11.1077L75.0467 11.1123ZM77.3008 7.21334H76.3955C75.7673 7.21334 75.407 7.75447 75.407 8.24473C75.407 8.77661 75.7673 9.25762 76.3955 9.25762H77.3008V7.21334Z" fill="#E7AC6D"/>
<path d="M88.317 9.27148H89.9844V10.6775H80.2014V9.26223H81.5409V3.77689H82.9774L82.8573 7.09769C83.6657 6.11718 84.9405 5.8073 85.6102 5.8073C86.9313 5.8073 88.5248 6.63981 88.5248 8.30021C88.5248 8.66097 88.4417 8.9801 88.3216 9.27148H88.3123H88.317ZM85.9474 9.26223C86.5202 9.26223 87.0514 8.84597 87.0514 8.32334C87.0514 7.43995 86.146 7.18557 85.7026 7.15319C84.086 7.03757 83.0744 8.38809 82.885 9.26223H85.9474Z" fill="#E7AC6D"/>
<path d="M89.9336 10.6775V9.26224H91.1345C91.5179 9.26224 91.7396 9.01711 91.7396 8.60085V8.11059C91.7396 6.88495 92.5803 5.57605 94.2154 5.57605C95.8505 5.57605 96.7373 6.88495 96.7373 8.11059C96.7373 9.33624 95.8551 10.7931 94.2154 10.7931C93.3978 10.7931 92.8435 10.4509 92.4602 10.1133C92.2662 10.3584 91.832 10.6775 91.1946 10.6775H89.929H89.9336ZM94.22 6.73695C93.4763 6.73695 93.2084 7.43071 93.2084 8.11059C93.2084 8.86448 93.4763 9.56749 94.22 9.56749C94.9637 9.56749 95.2639 8.96161 95.2639 8.11059C95.2639 7.35208 94.996 6.73695 94.22 6.73695Z" fill="#E7AC6D"/>
<path d="M105.065 10.6775C104.045 10.6775 103.569 10.178 103.343 9.63227C103.121 9.88664 102.664 10.252 101.948 10.2058C100.936 10.1549 100.128 9.25763 100.119 8.31874C100.086 6.63521 101.375 6.03858 103.149 6.02933V5.66857L104.585 5.31707V8.61937C104.585 9.03563 104.821 9.25763 105.19 9.25763H106.095V10.6729H105.065V10.6775ZM101.938 4.88694H100.493V3.65204H101.938V4.88694ZM103.149 6.92197C102.414 6.92197 101.523 7.23185 101.49 8.22162C101.481 8.58237 101.68 9.19288 102.289 9.20213C102.756 9.21138 103.149 8.87375 103.149 8.18924V6.92197ZM104.04 4.88694H102.594V3.65204H104.04V4.88694Z" fill="#E7AC6D"/>
<path d="M114.571 8.2586C114.571 9.60912 113.509 10.6775 112.063 10.6775H106.054V9.26224H112.063C112.603 9.26224 113.093 8.81361 113.093 8.26323C113.093 7.71284 112.7 7.23183 112.063 7.23183H107.107C107.107 5.07192 108.576 3.78152 110.349 3.78152H112.04V5.15517H110.456C109.615 5.15517 109.167 5.46505 108.945 5.81656H112.058C113.601 5.81656 114.566 6.92195 114.566 8.26323" fill="#E7AC6D"/>
<path d="M116.465 12.4952C115.804 12.4443 115.282 12.1992 115.282 12.1992L115.052 11.0152C115.052 11.0152 115.657 11.2603 116.276 11.2603C116.788 11.2603 117.583 10.9412 117.592 9.92826V6.2652H119.038V8.27711C119.056 8.87374 119.43 9.25762 120.058 9.25762H120.779V10.6729H120.142C119.652 10.6729 119.282 10.5341 119.015 10.3445C118.853 11.8338 117.652 12.5923 116.465 12.4952Z" fill="#E7AC6D"/>
<path d="M122.617 9.26224H120.682V10.6775H122.617V9.26224Z" fill="#E7AC6D"/>
<path d="M124.461 9.26224H122.525V10.6775H124.461V9.26224Z" fill="#E7AC6D"/>
<path d="M126.299 9.26224H124.364V10.6775H126.299V9.26224Z" fill="#E7AC6D"/>
<path d="M128.137 9.26224H126.202V10.6775H128.137V9.26224Z" fill="#E7AC6D"/>
<path d="M129.976 9.26224H128.04V10.6775H129.976V9.26224Z" fill="#E7AC6D"/>
<path d="M131.819 9.26224H129.883V10.6775H131.819V9.26224Z" fill="#E7AC6D"/>
<path d="M133.657 9.26224H131.721V10.6775H133.657V9.26224Z" fill="#E7AC6D"/>
<path d="M135.495 9.26224H133.56V10.6775H135.495V9.26224Z" fill="#E7AC6D"/>
<path d="M137.334 9.26224H135.398V10.6775H137.334V9.26224Z" fill="#E7AC6D"/>
<path d="M137.283 10.6775V9.26224H138.539C138.922 9.26224 139.153 9.04023 139.153 8.62398V6.26981H140.59V8.77198C140.613 9.47499 141.006 9.87737 141.449 9.87737C142.151 9.87737 142.299 9.34549 142.308 8.83211V6.26519H143.735V8.76735C143.759 9.47037 144.151 9.87275 144.595 9.87275C145.297 9.87275 145.444 9.34086 145.458 8.82748V5.94143H146.881V8.82748C146.881 9.882 146.488 10.881 145.214 10.881C144.488 10.881 144.045 10.5943 143.597 9.9745C143.394 10.4971 142.608 10.881 142.063 10.881C141.343 10.881 140.733 10.7099 140.29 9.8265C140.036 10.2844 139.555 10.6683 138.664 10.6683H137.283V10.6775ZM142.673 5.01179H141.218V3.7769H142.673V5.01179ZM143.671 3.23576H142.331V2.09799H143.671V3.23576ZM144.779 5.01179H143.334V3.7769H144.779V5.01179Z" fill="#E7AC6D"/>
<path d="M25.5588 23.452C24.5381 23.452 24.0577 22.9525 23.836 22.4067C23.6143 22.6611 23.157 23.0265 22.441 22.9802C21.4295 22.9247 20.6212 22.0321 20.6119 21.0932C20.5796 19.4097 21.8683 18.8131 23.642 18.8038V18.443L25.0785 18.0915V21.3938C25.0785 21.8101 25.314 22.0321 25.6836 22.0321H26.5889V23.4474H25.5588V23.452ZM22.4318 17.6614H20.9861V16.4265H22.4318V17.6614ZM23.642 19.6964C22.9076 19.6964 22.0161 20.0063 21.9838 20.9961C21.9745 21.3568 22.1731 21.9674 22.7828 21.9766C23.2494 21.9859 23.642 21.6482 23.642 20.9637V19.6964ZM24.5381 17.6614H23.0923V16.4265H24.5381V17.6614Z" fill="#E7AC6D"/>
<path d="M26.3025 24.0625H27.7482V25.2882H26.3025V24.0625ZM27.9607 23.4566C28.6212 23.4566 29.1709 23.156 29.4295 22.712C29.7067 23.0959 30.1732 23.4566 30.9492 23.4566H31.5774V22.0413H30.866C30.2286 22.0413 29.8452 21.639 29.8452 21.01V19.0489H28.4087V21.1903C28.4087 21.7962 28.1085 22.0413 27.5589 22.0413H26.5057V23.4566H27.9607ZM28.4087 24.0625H29.8545V25.2882H28.4087V24.0625Z" fill="#E7AC6D"/>
<path d="M31.522 23.452V22.0367H32.7783C33.1617 22.0367 33.3927 21.8147 33.3927 21.3985V18.7159H34.8292V21.3152C34.8292 21.9211 34.6906 23.4566 32.9031 23.4566H31.522V23.452ZM34.5197 25.2835H33.0647V24.0579H34.5197V25.2835Z" fill="#E7AC6D"/>
<path d="M36.723 25.2743C36.0624 25.2234 35.5405 24.9783 35.5405 24.9783L35.3049 23.7943C35.3049 23.7943 35.91 24.0394 36.529 24.0394C37.037 24.0394 37.8361 23.7203 37.8454 22.7074V19.0443H39.2911V21.0562C39.3142 21.6529 39.6837 22.0367 40.3119 22.0367H41.0371V23.452H40.3997C39.9101 23.452 39.5359 23.3133 39.2726 23.1236C39.111 24.6129 37.91 25.3714 36.7183 25.2743" fill="#E7AC6D"/>
<path d="M44.3488 18.3736C45.2218 18.3829 46.552 18.6511 46.9216 20.7463C46.6768 21.1811 46.3257 21.5649 45.9008 22.0367H47.7299V23.452H45.5405C45.1063 23.452 44.7229 23.3363 44.3488 23.1652C43.9654 23.3363 43.5728 23.452 43.1386 23.452H40.9492V22.0367H42.7691C42.3349 21.5696 41.9931 21.1857 41.7575 20.737C42.1178 18.6373 43.4481 18.3829 44.3303 18.3736H44.3534H44.3488ZM43.2864 20.5243C43.425 20.8018 43.776 21.2597 44.3396 21.6528C44.9031 21.2458 45.2541 20.8018 45.3927 20.5243C45.1479 19.7889 44.5105 19.664 44.3396 19.664C44.1686 19.664 43.522 19.7704 43.2864 20.5243Z" fill="#E7AC6D"/>
<path d="M47.6885 23.452V22.0367H48.9448C49.3282 22.0367 49.5592 21.8147 49.5592 21.3984V16.5514H50.9957V21.3106C50.9957 21.9165 50.8571 23.452 49.0696 23.452H47.6885Z" fill="#E7AC6D"/>
<path d="M53.9471 16.5514H52.5244V23.452H53.9471V16.5514Z" fill="#E7AC6D"/>
<path d="M58.7322 25.2743C58.0717 25.2234 57.5498 24.9783 57.5498 24.9783L57.3142 23.7943C57.3142 23.7943 57.9193 24.0394 58.5382 24.0394C59.0463 24.0394 59.8454 23.7203 59.8546 22.7074V19.0443H61.3004V21.0562C61.3235 21.6529 61.693 22.0367 62.3212 22.0367H63.0464V23.452H62.4089C61.9193 23.452 61.5452 23.3133 61.2819 23.1236C61.1203 24.6129 59.9193 25.3714 58.7276 25.2743" fill="#E7AC6D"/>
<path d="M62.7556 24.0625H64.2014V25.2882H62.7556V24.0625ZM64.4138 23.4566C65.0743 23.4566 65.624 23.156 65.8827 22.712C66.1598 23.0959 66.6263 23.4566 67.4023 23.4566H68.0305V22.0413H67.3192C66.6818 22.0413 66.2984 21.639 66.2984 21.01V19.0489H64.8619V21.1903C64.8619 21.7962 64.5663 22.0413 64.012 22.0413H62.9589V23.4566H64.4138ZM64.8619 24.0625H66.3076V25.2882H64.8619V24.0625Z" fill="#E7AC6D"/>
<path d="M70.5061 22.0367H73.9518V23.452H67.9749V22.0367H69.028V21.1302C69.028 19.7797 69.7809 18.4384 71.5361 18.4384C72.7786 18.4384 73.7809 19.2802 73.7809 20.7047H72.3583C72.3167 20.0664 71.998 19.8444 71.4668 19.8444C70.871 19.8444 70.5107 20.3254 70.5107 21.121V22.0367H70.5061ZM72.1781 17.5134H70.7232V16.2785H72.1781V17.5134Z" fill="#E7AC6D"/>
<path d="M82.2754 23.452C81.2546 23.452 80.7742 22.9525 80.5525 22.4067C80.3308 22.6611 79.8735 23.0265 79.1576 22.9802C78.146 22.9247 77.3377 22.0321 77.3285 21.0932C77.2961 19.4097 78.5848 18.8131 80.3585 18.8038V18.443L81.795 18.0915V21.3938C81.795 21.8101 82.0306 22.0321 82.4001 22.0321H83.3054V23.4474H82.2754V23.452ZM79.1484 17.6614H77.7026V16.4265H79.1484V17.6614ZM80.3585 19.6964C79.6241 19.6964 78.7326 20.0063 78.7003 20.9961C78.6911 21.3568 78.8897 21.9674 79.4994 21.9766C79.9659 21.9859 80.3585 21.6482 80.3585 20.9637V19.6964ZM81.25 17.6614H79.8043V16.4265H81.25V17.6614Z" fill="#E7AC6D"/>
<path d="M83.019 24.0625H84.4648V25.2882H83.019V24.0625ZM84.6773 23.4566C85.3378 23.4566 85.8874 23.156 86.1461 22.712C86.4232 23.0959 86.8897 23.4566 87.6657 23.4566H88.2939V22.0413H87.5826C86.9452 22.0413 86.5618 21.639 86.5618 21.01V19.0489H85.1253V21.1903C85.1253 21.7962 84.8251 22.0413 84.2754 22.0413H83.2223V23.4566H84.6773ZM85.1253 24.0625H86.571V25.2882H85.1253V24.0625Z" fill="#E7AC6D"/>
<path d="M93.6518 20.6631C93.6426 21.2689 93.407 21.6436 93.1437 22.0367H94.5248V23.452H92.4185C92.0767 23.452 91.7072 23.3872 91.3562 23.2161C91.0698 23.3872 90.6033 23.452 90.3261 23.452H88.1968V22.0367H89.5594C89.2822 21.6436 89.0698 21.2689 89.0698 20.6631C89.0698 19.5114 89.952 18.3644 91.3562 18.3644C92.7603 18.3644 93.6518 19.516 93.6518 20.6631ZM90.9913 17.3099H89.5455V16.0842H90.9913V17.3099ZM91.3516 21.7499C91.3516 21.7499 92.1691 21.3892 92.2014 20.6631C92.2014 20.256 91.9474 19.738 91.3516 19.738C90.7557 19.738 90.5016 20.2607 90.5016 20.6631C90.5247 21.4077 91.3516 21.7499 91.3516 21.7499ZM93.0975 17.3099H91.6518V16.0842H93.0975V17.3099Z" fill="#E7AC6D"/>
<path d="M95.6843 25.2835H94.2385V24.0579H95.6843V25.2835ZM94.4833 23.452V22.0367H95.7397C96.1231 22.0367 96.354 21.8147 96.354 21.3985V18.7159H97.7905V21.3152C97.7905 21.9211 97.6519 23.4566 95.8644 23.4566H94.4833V23.452ZM97.7905 25.2835H96.3448V24.0579H97.7905V25.2835Z" fill="#E7AC6D"/>
<path d="M99.6844 25.2743C99.0239 25.2234 98.5019 24.9783 98.5019 24.9783L98.271 23.7943C98.271 23.7943 98.8761 24.0394 99.495 24.0394C100.008 24.0394 100.802 23.7203 100.811 22.7074V19.0443H102.257V21.0562C102.276 21.6529 102.65 22.0367 103.278 22.0367H103.999V23.452H103.361C102.872 23.452 102.502 23.3133 102.234 23.1236C102.072 24.6129 100.871 25.3714 99.6844 25.2743Z" fill="#E7AC6D"/>
<path d="M107.287 20.8666C106.959 21.2597 106.52 21.4308 105.971 21.4308C105.236 21.4308 104.372 20.9082 104.405 19.9739C104.469 18.0684 106.405 18.2257 108.733 18.2257L108.724 21.3152C108.724 21.9211 108.585 23.4566 106.797 23.4566H103.948V22.0413H106.682C107.056 22.0413 107.287 21.8193 107.287 21.4031V20.8712V20.8666ZM105.777 19.7889C105.777 20.1821 106.072 20.4688 106.479 20.4688C107.264 20.4688 107.296 19.5947 107.296 19.0304C106.797 19.0212 105.777 19.0073 105.777 19.7843M107.597 17.2821H106.142V16.0472H107.597V17.2821Z" fill="#E7AC6D"/>
<path d="M109.509 16.1582L109.67 15.6264H109.957V15.3812C109.957 14.965 110.16 14.5718 110.668 14.5718C111.102 14.5718 111.338 14.7938 111.379 15.2841H110.848C110.848 15.1453 110.742 15.0945 110.668 15.0945C110.511 15.0945 110.479 15.2193 110.479 15.3812V15.6264H110.945C110.945 15.6264 111.116 15.6356 111.158 15.5015L111.509 15.8206C111.403 16.075 111.102 16.1629 110.913 16.1629H109.509V16.1582ZM110.904 22.0367H110.179L109.615 23.452H112.234C114.022 23.452 114.16 21.9165 114.16 21.3106V16.5837H112.724V21.4632C112.724 21.7592 112.585 21.9858 112.363 22.0367L111.065 16.7364H109.597L110.904 22.0367Z" fill="#E7AC6D"/>
<path d="M117.107 16.5514H115.684V23.452H117.107V16.5514Z" fill="#E7AC6D"/>
<path d="M125.957 16.5514H127.38V21.7176C127.38 23.8914 125.851 25.2835 123.892 25.2835C121.934 25.2835 120.479 23.7156 120.479 21.6944C120.479 20.9914 120.521 20.6307 120.701 20.0664H122.188C122.188 20.0664 121.869 20.7139 121.869 21.6944C121.869 22.8461 122.858 23.8451 123.892 23.8451C124.987 23.8451 125.957 22.9802 125.957 21.6621V16.5514Z" fill="#E7AC6D"/>
<path d="M129.837 23.8914C130.082 23.9654 130.424 24.0394 130.761 24.0394H130.784C131.038 24.0394 131.782 24.0301 132.026 23.452H131.227C129.805 23.452 128.719 22.3882 128.719 21.0238C128.719 19.6594 129.698 18.7113 131.227 18.7113H133.537V23.0773C133.537 24.7516 132.165 25.2696 131.08 25.2696C130.793 25.2696 130.433 25.2141 130.207 25.154L129.832 23.8867L129.837 23.8914ZM132.091 19.9924H131.186C130.558 19.9924 130.197 20.5336 130.197 21.0238C130.197 21.5557 130.558 22.0367 131.186 22.0367H132.091V19.9924Z" fill="#E7AC6D"/>
<path d="M137.708 20.0895C137.708 20.0895 137.708 19.59 137.089 19.59C136.844 19.59 136.502 19.7149 136.451 20.1867H135.098C135.153 18.813 136.451 18.591 137.066 18.591C138.428 18.591 139.172 19.1645 139.172 20.4457V22.0413H140.659V23.4566H134.876V22.0413H137.703V20.0942L137.708 20.0895Z" fill="#E7AC6D"/>
<path d="M140.622 23.452V22.0367H141.879C142.262 22.0367 142.498 21.8147 142.498 21.3984V16.5514H143.934V21.3106C143.934 21.9165 143.796 23.452 142.008 23.452H140.627H140.622Z" fill="#E7AC6D"/>
<path d="M146.881 16.5514H145.458V23.452H146.881V16.5514Z" fill="#E7AC6D"/>
<path d="M4.99774 31.4795L4.41112 32.0252C3.97232 31.5627 3.455 31.3453 2.84991 31.3592C2.24021 31.3685 1.75521 31.5905 1.40878 32.0206C1.05774 32.4507 0.886844 32.9456 0.886844 33.5099C0.886844 34.0741 1.06236 34.5552 1.41341 34.9807C1.76445 35.4015 2.24482 35.6143 2.84991 35.6143C3.15476 35.6143 3.455 35.5449 3.75985 35.4015C4.0647 35.2582 4.31875 35.0639 4.53122 34.8095L5.1825 35.3137C4.55432 36.0768 3.77833 36.4607 2.84991 36.4607C2.24482 36.4607 1.71826 36.3173 1.27484 36.0259C0.831414 35.7345 0.508083 35.3738 0.304847 34.9344C0.101612 34.495 0 34.0233 0 33.5145C0 33.1399 0.0600465 32.7745 0.18014 32.4184C0.300234 32.0622 0.475753 31.7431 0.697464 31.4563C0.923794 31.1696 1.22403 30.943 1.60279 30.7718C1.97693 30.6007 2.39263 30.5175 2.84991 30.5175C3.75523 30.5175 4.47117 30.8412 4.99312 31.4841" fill="#A77646"/>
<path d="M8.44802 30.5176C9.24248 30.5176 9.91685 30.8044 10.4758 31.3732C11.0346 31.9468 11.3118 32.6498 11.3118 33.4869C11.3118 34.324 11.0346 35.0409 10.4758 35.6052C9.91685 36.1695 9.24248 36.4516 8.44802 36.4516C7.65355 36.4516 6.97456 36.1695 6.42029 35.6144C5.86601 35.0548 5.58887 34.3472 5.58887 33.4869C5.58887 32.6266 5.86601 31.9283 6.42029 31.364C6.97456 30.7997 7.64893 30.5176 8.44802 30.5176ZM6.48033 33.4915C6.48033 34.1437 6.67433 34.6617 7.06694 35.0409C7.45955 35.4202 7.91683 35.6098 8.45263 35.6098C8.98844 35.6098 9.4411 35.4202 9.83371 35.0409C10.2309 34.6617 10.4296 34.1437 10.4296 33.4915C10.4296 32.8394 10.2309 32.326 9.8291 31.9329C9.43186 31.5397 8.96997 31.3501 8.4434 31.3547C7.91684 31.3594 7.45955 31.5536 7.06694 31.9421C6.67433 32.326 6.48033 32.844 6.48033 33.4915Z" fill="#A77646"/>
<path d="M15.2704 34.3426L16.7716 30.6055H17.7785V36.3313H16.8917V33.4638L17.0164 32.1133L16.9748 32.104L16.5545 33.325L15.5706 35.4618H14.8039L13.8293 33.3204L13.3535 32.104L13.3166 32.1133L13.4413 33.4638V36.3313H12.5544V30.6055H13.6122L15.2704 34.3426Z" fill="#A77646"/>
<path d="M20.1571 34.3564V36.3406H19.2703V30.6147H21.007C21.6167 30.6147 22.0925 30.7997 22.4296 31.1744C22.7668 31.549 22.9377 31.9884 22.9377 32.5018C22.9377 33.0152 22.7668 33.4499 22.4296 33.8107C22.0878 34.1761 21.6167 34.3564 21.007 34.3564H20.1617H20.1571ZM21.007 33.51C21.3349 33.51 21.589 33.4083 21.7738 33.2002C21.9585 32.9967 22.0509 32.7608 22.0509 32.5018C22.0509 32.2428 21.9585 31.9976 21.7691 31.7803C21.5797 31.5675 21.3257 31.4565 21.007 31.4565H20.1571V33.5054H21.007V33.51Z" fill="#A77646"/>
<path d="M23.0164 36.3313L25.0533 30.5962H26.0464L28.0187 36.3313H27.1319L26.4898 34.6293H24.5637L24.0002 36.3313H23.0164ZM24.8455 33.7875H26.2173L25.6908 32.1595L25.5614 31.5721H25.5199L25.3905 32.1595L24.8501 33.7875H24.8455Z" fill="#A77646"/>
<path d="M29.9172 30.6055L31.9957 34.3102L32.3283 35.1705L32.3514 35.1612L32.2359 34.1067V30.6055H33.1181V36.3313H32.1435L30.0419 32.6267L29.5985 31.771L29.5754 31.7803L29.7001 32.8348V36.3313H28.8132V30.6055H29.9172Z" fill="#A77646"/>
<path d="M38.7024 30.6009L36.7347 34.0604V36.3313H35.8479V34.0419L33.8987 30.6009H34.9657L36.2959 33.066L37.6216 30.6009H38.7024Z" fill="#A77646"/>
<path d="M43.968 30.5176C44.7625 30.5176 45.4369 30.8044 45.9958 31.3732C46.5547 31.9468 46.8318 32.6498 46.8318 33.4869C46.8318 34.324 46.5547 35.0409 45.9958 35.6052C45.4369 36.1695 44.7625 36.4516 43.968 36.4516C43.1736 36.4516 42.4946 36.1695 41.9403 35.6144C41.386 35.0548 41.1089 34.3472 41.1089 33.4869C41.1089 32.6266 41.386 31.9283 41.9403 31.364C42.4946 30.7997 43.1689 30.5176 43.968 30.5176ZM42.0003 33.4915C42.0003 34.1437 42.1943 34.6617 42.587 35.0409C42.9796 35.4202 43.4369 35.6098 43.9727 35.6098C44.5085 35.6098 44.9611 35.4202 45.3537 35.0409C45.751 34.6617 45.9496 34.1437 45.9496 33.4915C45.9496 32.8394 45.751 32.326 45.3491 31.9329C44.9519 31.5397 44.49 31.3501 43.9634 31.3547C43.4369 31.3594 42.9796 31.5536 42.587 31.9421C42.1943 32.326 42.0003 32.844 42.0003 33.4915Z" fill="#A77646"/>
<path d="M51.2337 30.6332V31.4796H48.9288V33.103H51.2014V33.9494H48.9288V36.336H48.042V30.6332H51.2337Z" fill="#A77646"/>
<path d="M57.0028 34.3426L58.504 30.6055H59.5109V36.3313H58.6241V33.4638L58.7488 32.1133L58.7072 32.104L58.2869 33.325L57.3077 35.4618H56.5363L55.5617 33.3204L55.0859 32.104L55.049 32.1133L55.1737 33.4638V36.3313H54.2869V30.6055H55.3446L57.0028 34.3426Z" fill="#A77646"/>
<path d="M61.0212 30.6425H61.9081V34.6293C61.9081 34.9484 62.0097 35.1889 62.2083 35.3508C62.4069 35.5127 62.6517 35.5959 62.9427 35.5959C63.2337 35.5959 63.4785 35.5127 63.6864 35.3508C63.8943 35.1889 63.9959 34.9484 63.9959 34.6293V30.6425H64.8827V34.6293C64.8827 35.0363 64.7857 35.3786 64.5917 35.6607C64.3977 35.9428 64.1622 36.1417 63.8758 36.262C63.594 36.3822 63.2799 36.4423 62.9427 36.4423C62.4069 36.4423 61.9543 36.2897 61.5801 35.9891C61.206 35.6838 61.0212 35.2306 61.0212 34.6293V30.6425Z" fill="#A77646"/>
<path d="M65.6082 30.624H69.2802V31.4704H67.8945V36.3314H67.0077V31.4704H65.6082V30.624Z" fill="#A77646"/>
<path d="M69.0769 36.3313L71.1139 30.5962H72.1023L74.0793 36.3313H73.1924L72.5504 34.6293H70.6243L70.0607 36.3313H69.0769ZM70.906 33.7875H72.2732L71.7467 32.1595L71.6173 31.5721H71.5758L71.4464 32.1595L70.906 33.7875Z" fill="#A77646"/>
<path d="M77.9822 32.3631L77.779 33.4777L76.9753 36.3591H75.8067L74.384 30.624H75.3586L76.3148 34.5785L76.4441 35.5544H76.4764L76.6289 34.5785L77.4926 31.3085L78.5272 31.3039L79.3772 34.5738L79.5296 35.5544H79.5619L79.6912 34.5785L80.6427 30.624H81.5296L80.0746 36.3591H78.9891L78.2132 33.4823L78.0145 32.3631H77.9822Z" fill="#A77646"/>
<path d="M83.3912 30.6147H82.5044V36.3313H83.3912V30.6147Z" fill="#A77646"/>
<path d="M87.6961 30.6332V31.4796H85.3866V33.103H87.6638V33.9494H85.3866V36.336H84.5044V30.6332H87.6961Z" fill="#A77646"/>
<path d="M89.2434 32.1272C89.2342 32.2937 89.285 32.4417 89.4005 32.5665C89.5159 32.6914 89.6407 32.7793 89.7654 32.8394C89.8901 32.8949 90.0425 32.9458 90.2134 32.9921C90.4213 33.0476 90.5968 33.0984 90.74 33.1493C90.8878 33.2002 91.0402 33.2788 91.2111 33.3759C91.3774 33.4777 91.5113 33.5887 91.6083 33.7182C91.71 33.8477 91.7885 34.0049 91.8531 34.2038C91.9178 34.3981 91.9409 34.6201 91.9317 34.8698C91.904 35.3786 91.71 35.7717 91.3404 36.0492C90.9709 36.3267 90.5414 36.4655 90.0471 36.4655C89.6453 36.4655 89.2711 36.3545 88.9201 36.1279C88.569 35.9012 88.315 35.5775 88.158 35.1473L88.8647 34.782C89.1233 35.3416 89.5252 35.6191 90.0656 35.6191C90.3474 35.6237 90.5783 35.5543 90.7538 35.4017C90.934 35.2537 91.0264 35.0595 91.0402 34.819C91.0495 34.6571 91.0264 34.5137 90.9663 34.3934C90.9063 34.2732 90.8139 34.1714 90.6892 34.0974C90.5645 34.0188 90.449 33.9633 90.3474 33.9217C90.2457 33.8801 90.1164 33.8431 89.9686 33.8014C89.7931 33.7506 89.6407 33.7043 89.5113 33.6581C89.3774 33.6118 89.2342 33.5424 89.0725 33.4499C88.9109 33.3574 88.7815 33.2557 88.6799 33.1401C88.5783 33.0244 88.4905 32.8764 88.4259 32.696C88.3566 32.5157 88.3289 32.3122 88.3335 32.0948C88.3427 31.5722 88.5275 31.1744 88.8831 30.8969C89.2388 30.6194 89.6545 30.4853 90.1303 30.4853C90.5229 30.4853 90.8693 30.5963 91.1788 30.8183C91.4882 31.0403 91.7146 31.3594 91.8531 31.771L91.1464 32.104C91.0448 31.8543 90.897 31.6647 90.7076 31.5305C90.5183 31.3964 90.3197 31.3316 90.1164 31.3316C89.8901 31.327 89.6915 31.3918 89.5206 31.5305C89.3497 31.6693 89.2573 31.8682 89.2388 32.1272" fill="#A77646"/>
<path d="M98.3751 30.6332V31.4796H96.0702V33.103H98.3427V33.9494H96.0702V36.336H95.1833V30.6332H98.3751Z" fill="#A77646"/>
<path d="M101.816 30.5176C102.611 30.5176 103.285 30.8044 103.844 31.3732C104.403 31.9468 104.68 32.6498 104.68 33.4869C104.68 34.324 104.403 35.0409 103.844 35.6052C103.285 36.1695 102.611 36.4516 101.816 36.4516C101.022 36.4516 100.343 36.1695 99.7885 35.6144C99.2342 35.0548 98.9617 34.3472 98.9617 33.4869C98.9617 32.6266 99.2388 31.9283 99.7885 31.364C100.343 30.7997 101.017 30.5176 101.816 30.5176ZM99.8439 33.4915C99.8439 34.1437 100.038 34.6617 100.431 35.0409C100.823 35.4202 101.285 35.6098 101.816 35.6098C102.347 35.6098 102.805 35.4202 103.202 35.0409C103.599 34.6617 103.798 34.1437 103.798 33.4915C103.798 32.8394 103.599 32.326 103.197 31.9329C102.8 31.5397 102.338 31.3501 101.812 31.3547C101.285 31.3594 100.828 31.5536 100.435 31.9421C100.047 32.326 99.8485 32.844 99.8485 33.4915" fill="#A77646"/>
<path d="M108.274 34.1159L109.973 36.3314H108.869L107.22 34.1529H106.791V36.3314H105.904V30.6286H107.729C108.311 30.6286 108.777 30.772 109.133 31.0634C109.488 31.3501 109.669 31.7988 109.673 32.4047C109.673 32.8995 109.553 33.2927 109.29 33.5841C109.031 33.8708 108.689 34.0512 108.274 34.1159ZM106.786 33.3066H107.733C108.061 33.3066 108.315 33.2279 108.505 33.066C108.694 32.9042 108.786 32.6822 108.786 32.3954C108.786 32.1087 108.689 31.8774 108.5 31.7155C108.311 31.5536 108.056 31.475 107.733 31.475H106.786V33.3066Z" fill="#A77646"/>
<path d="M113.793 34.3564V36.3406H112.911V30.6147H114.648C115.257 30.6147 115.733 30.7997 116.07 31.1744C116.407 31.549 116.574 31.9884 116.574 32.5018C116.574 33.0152 116.403 33.4499 116.066 33.8107C115.728 34.1761 115.253 34.3564 114.643 34.3564H113.798H113.793ZM114.643 33.51C114.971 33.51 115.225 33.4083 115.41 33.2002C115.595 32.9967 115.687 32.7608 115.687 32.5018C115.687 32.2428 115.595 31.9976 115.405 31.7803C115.216 31.5675 114.962 31.4565 114.643 31.4565H113.793V33.5054H114.643V33.51Z" fill="#A77646"/>
<path d="M118.417 30.6147H117.53V36.3313H118.417V30.6147Z" fill="#A77646"/>
<path d="M122.551 35.4896V36.3313H119.525V30.6425H120.412V35.4896H122.551Z" fill="#A77646"/>
<path d="M125.701 30.5176C126.144 30.5176 126.569 30.6147 126.971 30.8136C127.373 31.0125 127.724 31.2854 128.015 31.6322L127.35 32.178C127.133 31.9236 126.879 31.7247 126.588 31.5814C126.297 31.438 126.001 31.3686 125.701 31.3686C125.294 31.3686 124.939 31.475 124.629 31.6924C124.32 31.9097 124.094 32.178 123.946 32.4925C123.798 32.8116 123.724 33.1446 123.724 33.4961C123.724 34.0558 123.904 34.5414 124.255 34.9669C124.611 35.3924 125.091 35.6006 125.696 35.6006C126.144 35.6006 126.546 35.4803 126.893 35.2398C127.244 34.9993 127.452 34.6432 127.521 34.1714H125.248V33.325H128.505C128.532 34.287 128.288 35.0455 127.775 35.6052C127.262 36.1648 126.569 36.4469 125.696 36.4469C125.091 36.4469 124.565 36.3036 124.121 36.0122C123.678 35.7208 123.354 35.3554 123.151 34.916C122.948 34.4767 122.842 34.0049 122.837 33.4915C122.837 33.1169 122.897 32.7561 123.017 32.4046C123.137 32.0531 123.313 31.7386 123.539 31.4519C123.766 31.1651 124.07 30.9385 124.445 30.7674C124.819 30.5962 125.234 30.513 125.692 30.513" fill="#A77646"/>
<path d="M132.158 34.1159L133.858 36.3314H132.754L131.105 34.1529H130.676V36.3314H129.789V30.6286H131.613C132.195 30.6286 132.662 30.772 133.017 31.0634C133.373 31.3501 133.553 31.7988 133.558 32.4047C133.558 32.8995 133.438 33.2927 133.175 33.5841C132.916 33.8708 132.574 34.0512 132.158 34.1159ZM130.671 33.3066H131.618C131.946 33.3066 132.2 33.2279 132.389 33.066C132.579 32.9042 132.671 32.6822 132.671 32.3954C132.671 32.1087 132.574 31.8774 132.385 31.7155C132.195 31.5536 131.941 31.475 131.618 31.475H130.671V33.3066Z" fill="#A77646"/>
<path d="M135.382 30.6147H134.496V36.3313H135.382V30.6147Z" fill="#A77646"/>
<path d="M139.493 34.3426L140.994 30.6055H142.001V36.3313H141.115V33.4638L141.239 32.1133L141.202 32.104L140.777 33.325L139.798 35.4618H139.027L138.052 33.3204L137.581 32.104L137.539 32.1133L137.664 33.4638V36.3313H136.777V30.6055H137.835L139.493 34.3426Z" fill="#A77646"/>
<path d="M144.191 32.1272C144.181 32.2937 144.232 32.4417 144.348 32.5665C144.463 32.6914 144.588 32.7793 144.713 32.8394C144.837 32.8949 144.99 32.9458 145.161 32.9921C145.369 33.0476 145.544 33.0984 145.687 33.1493C145.835 33.2002 145.992 33.2788 146.158 33.3759C146.325 33.4777 146.459 33.5887 146.556 33.7182C146.657 33.8477 146.736 34.0049 146.8 34.2038C146.865 34.3981 146.888 34.6201 146.879 34.8698C146.851 35.3786 146.657 35.7717 146.288 36.0492C145.918 36.3267 145.489 36.4655 144.994 36.4655C144.593 36.4655 144.218 36.3545 143.867 36.1279C143.516 35.9012 143.262 35.5775 143.105 35.1473L143.812 34.782C144.071 35.3416 144.472 35.6191 145.013 35.6191C145.295 35.6237 145.526 35.5543 145.701 35.4017C145.881 35.2537 145.974 35.0595 145.987 34.819C145.997 34.6571 145.974 34.5137 145.914 34.3934C145.854 34.2732 145.761 34.1714 145.636 34.0974C145.512 34.0188 145.396 33.9633 145.295 33.9217C145.193 33.8801 145.064 33.8431 144.916 33.8014C144.74 33.7506 144.588 33.7043 144.459 33.6581C144.325 33.6118 144.181 33.5424 144.02 33.4499C143.858 33.3574 143.729 33.2557 143.627 33.1401C143.526 33.0244 143.438 32.8764 143.373 32.696C143.304 32.5157 143.276 32.3122 143.281 32.0948C143.29 31.5722 143.475 31.1744 143.83 30.8969C144.186 30.6194 144.602 30.4853 145.078 30.4853C145.466 30.4853 145.817 30.5963 146.126 30.8183C146.436 31.0403 146.662 31.3594 146.8 31.771L146.094 32.104C145.992 31.8543 145.844 31.6647 145.655 31.5305C145.466 31.3964 145.267 31.3316 145.064 31.3316C144.837 31.327 144.639 31.3918 144.468 31.5305C144.297 31.6693 144.205 31.8682 144.186 32.1272" fill="#A77646"/>
<path d="M4.30939 40.3922V41.2385H1.9999V42.8666H4.27706V43.7083H1.9999V46.0949H1.11768V40.3922H4.30939Z" fill="#A77646"/>
<path d="M7.70913 43.8749L9.40892 46.0903H8.30499L6.65601 43.9119H6.22644V46.0903H5.3396V40.3875H7.1641C7.74609 40.3875 8.2126 40.5309 8.56826 40.8223C8.92393 41.1137 9.10407 41.5577 9.10869 42.1636C9.11331 42.6585 8.98859 43.0516 8.72993 43.343C8.47127 43.6297 8.13408 43.8101 7.71376 43.8749M6.22644 43.0655H7.17334C7.50128 43.0655 7.75533 42.9868 7.94471 42.825C8.13408 42.6631 8.22646 42.4411 8.22646 42.1543C8.22646 41.8676 8.12946 41.6363 7.94008 41.4744C7.7507 41.3126 7.49667 41.2339 7.17334 41.2339H6.22644V43.0655Z" fill="#A77646"/>
<path d="M12.8316 40.2765C13.626 40.2765 14.3004 40.5633 14.8593 41.1322C15.4182 41.7057 15.6953 42.4087 15.6953 43.2458C15.6953 44.083 15.4182 44.7998 14.8593 45.3641C14.3004 45.9284 13.626 46.2105 12.8316 46.2105C12.0371 46.2105 11.3581 45.9284 10.8038 45.3734C10.2496 44.8137 9.97241 44.1061 9.97241 43.2458C9.97241 42.3856 10.2496 41.6872 10.8038 41.1229C11.3581 40.5587 12.0325 40.2765 12.8316 40.2765ZM10.8639 43.2504C10.8639 43.9026 11.0579 44.4206 11.4505 44.7998C11.8431 45.1791 12.3004 45.3687 12.8362 45.3687C13.372 45.3687 13.8246 45.1791 14.2173 44.7998C14.6145 44.4206 14.8131 43.9026 14.8131 43.2504C14.8131 42.5983 14.6145 42.0849 14.2126 41.6918C13.8154 41.2987 13.3535 41.109 12.8269 41.1137C12.3004 41.1183 11.8431 41.3125 11.4505 41.701C11.0579 42.0849 10.8639 42.6029 10.8639 43.2504Z" fill="#A77646"/>
<path d="M19.737 44.1015L21.2381 40.369H22.2451V46.0949H21.3582V43.2227L21.4829 41.8722L21.4414 41.8629L21.021 43.0839L20.0372 45.2254H19.2704L18.2958 43.0839L17.8201 41.8629L17.7831 41.8722L17.9078 43.2227V46.0949H17.021V40.369H18.0787L19.737 44.1015Z" fill="#A77646"/>
<path d="M25.3721 46.0949L27.409 40.3598H28.4021L30.3744 46.0949H29.4876L28.8455 44.3928H26.9194L26.3559 46.0949H25.3721ZM27.2012 43.5511H28.573L28.0465 41.923L27.9171 41.3357H27.8756L27.7462 41.923L27.2058 43.5511H27.2012Z" fill="#A77646"/>
<path d="M34.4254 40.3922V41.2385H32.1205V42.8666H34.393V43.7083H32.1205V46.0949H31.2336V40.3922H34.4254Z" fill="#A77646"/>
<path d="M37.8295 43.8749L39.5293 46.0903H38.4253L36.7764 43.9119H36.3468V46.0903H35.46V40.3875H37.2845C37.8665 40.3875 38.333 40.5309 38.6886 40.8223C39.0443 41.1137 39.2244 41.5577 39.2291 42.1636C39.2337 42.6585 39.109 43.0516 38.8503 43.343C38.5916 43.6297 38.2544 43.8101 37.8341 43.8749M36.3468 43.0655H37.2937C37.6216 43.0655 37.8757 42.9868 38.0651 42.825C38.2544 42.6631 38.3468 42.4411 38.3468 42.1543C38.3468 41.8676 38.2498 41.6363 38.0605 41.4744C37.8711 41.3126 37.617 41.2339 37.2937 41.2339H36.3468V43.0655Z" fill="#A77646"/>
<path d="M41.1366 40.3783H40.2498V46.0949H41.1366V40.3783Z" fill="#A77646"/>
<path d="M47.2289 41.2385L46.6423 41.7843C46.2035 41.3218 45.6862 41.1044 45.0811 41.1183C44.4668 41.1275 43.9864 41.3495 43.64 41.7797C43.2889 42.2098 43.1134 42.7047 43.1134 43.2689C43.1134 43.8332 43.2889 44.3142 43.64 44.7397C43.991 45.1606 44.4714 45.3734 45.0765 45.3734C45.3813 45.3734 45.6816 45.304 45.9864 45.1606C46.2913 45.0172 46.5453 44.823 46.7578 44.5686L47.4091 45.0727C46.7809 45.8359 46.0049 46.2197 45.0765 46.2197C44.4714 46.2197 43.9448 46.0764 43.5014 45.785C43.058 45.4936 42.7346 45.1329 42.5314 44.6935C42.3282 44.2541 42.2266 43.7823 42.2266 43.2736C42.2266 42.8989 42.2866 42.5336 42.4067 42.1774C42.5268 41.8213 42.7023 41.5022 42.924 41.2154C43.1504 40.9287 43.4506 40.702 43.8293 40.5309C44.2035 40.3598 44.6192 40.2765 45.0765 40.2765C45.9818 40.2765 46.6977 40.6003 47.2197 41.2432" fill="#A77646"/>
<path d="M47.8064 46.0949L49.8434 40.3598H50.8364L52.8087 46.0949H51.9219L51.2799 44.3928H49.3538L48.7902 46.0949H47.8064ZM49.6355 43.5511H51.0073L50.4808 41.923L50.3515 41.3357H50.3099L50.1806 41.923L49.6401 43.5511H49.6355Z" fill="#A77646"/>
<path d="M54.7856 40.369L56.8688 44.0691L57.1967 44.9293L57.2198 44.9201L57.1043 43.8656V40.369H57.9912V46.0949H57.0166L54.9103 42.3856L54.4715 41.5299L54.4484 41.5392L54.5685 42.5983V46.0949H53.6863V40.369H54.7856Z" fill="#A77646"/>
<path d="M62.9106 40.369L64.9891 44.0691L65.3217 44.9293L65.3448 44.9201L65.2293 43.8656V40.369H66.1115V46.0949H65.1369L63.0353 42.3856L62.5919 41.5299L62.5688 41.5392L62.6935 42.5983V46.0949H61.8066V40.369H62.9106Z" fill="#A77646"/>
<path d="M70.25 40.2765C71.0445 40.2765 71.7188 40.5633 72.2777 41.1322C72.8366 41.7057 73.1138 42.4087 73.1138 43.2458C73.1138 44.083 72.8366 44.7998 72.2777 45.3641C71.7235 45.9284 71.0445 46.2105 70.25 46.2105C69.4556 46.2105 68.7766 45.9284 68.2223 45.3734C67.668 44.8137 67.3909 44.1061 67.3909 43.2458C67.3909 42.3856 67.668 41.6872 68.2223 41.1229C68.7766 40.5587 69.4509 40.2765 70.25 40.2765ZM68.2823 43.2504C68.2823 43.9026 68.4763 44.4206 68.8689 44.7998C69.2616 45.1791 69.7188 45.3687 70.2546 45.3687C70.7904 45.3687 71.2431 45.1791 71.6357 44.7998C72.0329 44.4206 72.2316 43.9026 72.2316 43.2504C72.2316 42.5983 72.0329 42.0849 71.6357 41.6918C71.2339 41.2987 70.772 41.109 70.2454 41.1137C69.7188 41.1183 69.2616 41.3125 68.8689 41.701C68.4763 42.0849 68.2823 42.6029 68.2823 43.2504Z" fill="#A77646"/>
<path d="M75.5248 40.369L77.6034 44.0691L77.9359 44.9293L77.959 44.9201L77.8436 43.8656V40.369H78.7258V46.0949H77.7512L75.6495 42.3856L75.2061 41.5299L75.183 41.5392L75.3077 42.5983V46.0949H74.4209V40.369H75.5248Z" fill="#A77646"/>
<path d="M81.8298 46.0949L83.8714 40.3598H84.8599L86.8322 46.0949H85.9499L85.3033 44.3928H83.3772L82.809 46.0949H81.8252H81.8298ZM83.6589 43.5511H85.0261L84.4996 41.923L84.3703 41.3357H84.3287L84.1994 41.923L83.6589 43.5511Z" fill="#A77646"/>
<path d="M90.0795 43.8749L91.7793 46.0903H90.6754L89.0264 43.9119H88.5968V46.0903H87.71V40.3875H89.5345C90.1165 40.3875 90.583 40.5309 90.9386 40.8223C91.2943 41.1091 91.4744 41.5577 91.4791 42.1636C91.4791 42.6585 91.359 43.0516 91.0957 43.343C90.837 43.6297 90.4952 43.8101 90.0795 43.8749ZM88.5922 43.0655H89.5391C89.867 43.0655 90.1211 42.9868 90.3105 42.825C90.4998 42.6631 90.5922 42.4411 90.5922 42.1543C90.5922 41.8676 90.4952 41.6363 90.3058 41.4744C90.1164 41.3126 89.8624 41.2339 89.5391 41.2339H88.5922V43.0655Z" fill="#A77646"/>
<path d="M92.0009 46.0949L94.0425 40.3598H95.031L97.0033 46.0949H96.1164L95.4698 44.3928H93.5437L92.9755 46.0949H91.9917H92.0009ZM93.83 43.5511H95.1973L94.6707 41.923L94.5414 41.3357H94.4998L94.3705 41.923L93.83 43.5511Z" fill="#A77646"/>
<path d="M101.35 41.9277C101.35 42.1451 101.294 42.3532 101.183 42.5521C101.073 42.7509 100.902 42.9036 100.666 43.0146C100.966 43.1256 101.197 43.3106 101.354 43.5788C101.511 43.8471 101.59 44.12 101.585 44.3975C101.585 44.9525 101.396 45.378 101.022 45.6647C100.648 45.9515 100.19 46.0995 99.6453 46.0995H97.8716V40.3737H99.6637C100.144 40.3737 100.546 40.517 100.865 40.7992C101.183 41.0813 101.345 41.4606 101.345 41.9323M98.7538 42.6538H99.6453C99.9086 42.6538 100.112 42.5798 100.255 42.4364C100.394 42.2931 100.463 42.1219 100.463 41.9277C100.463 41.7334 100.394 41.5716 100.255 41.4328C100.116 41.294 99.9132 41.2247 99.6453 41.2247H98.7538V42.6584V42.6538ZM99.6453 43.5002H98.7538V45.2577H99.6453C99.9871 45.2577 100.25 45.1745 100.431 45.0034C100.611 44.8322 100.698 44.6334 100.698 44.3975C100.698 44.1616 100.606 43.9535 100.426 43.7731C100.246 43.5927 99.9825 43.5002 99.6453 43.5002Z" fill="#A77646"/>
<path d="M109.622 41.2385L109.036 41.7843C108.597 41.3218 108.08 41.1044 107.474 41.1183C106.865 41.1275 106.384 41.3495 106.033 41.7797C105.682 42.2098 105.511 42.7047 105.511 43.2689C105.511 43.8332 105.687 44.3142 106.038 44.7397C106.389 45.1606 106.869 45.3734 107.474 45.3734C107.779 45.3734 108.08 45.304 108.384 45.1606C108.685 45.0172 108.943 44.823 109.156 44.5686L109.807 45.0727C109.179 45.8359 108.403 46.2197 107.474 46.2197C106.869 46.2197 106.343 46.0764 105.899 45.785C105.456 45.4936 105.133 45.1329 104.929 44.6935C104.726 44.2541 104.625 43.7823 104.625 43.2736C104.625 42.8989 104.685 42.5336 104.805 42.1774C104.925 41.8213 105.1 41.5022 105.327 41.2154C105.553 40.9287 105.853 40.702 106.232 40.5309C106.606 40.3598 107.022 40.2765 107.479 40.2765C108.384 40.2765 109.1 40.6003 109.622 41.2432" fill="#A77646"/>
<path d="M113.156 40.2765C113.95 40.2765 114.625 40.5633 115.184 41.1322C115.742 41.7057 116.02 42.4087 116.02 43.2458C116.02 44.083 115.742 44.7998 115.184 45.3641C114.625 45.9284 113.95 46.2105 113.156 46.2105C112.361 46.2105 111.682 45.9284 111.128 45.3734C110.574 44.8137 110.301 44.1061 110.301 43.2458C110.301 42.3856 110.578 41.6872 111.128 41.1229C111.682 40.5587 112.357 40.2765 113.156 40.2765ZM111.183 43.2504C111.183 43.9026 111.377 44.4206 111.77 44.7998C112.163 45.1791 112.625 45.3687 113.156 45.3687C113.687 45.3687 114.144 45.1791 114.541 44.7998C114.939 44.4206 115.137 43.9026 115.137 43.2504C115.137 42.5983 114.939 42.0849 114.537 41.6918C114.14 41.2987 113.678 41.109 113.151 41.1137C112.625 41.1183 112.167 41.3125 111.775 41.701C111.387 42.0849 111.188 42.6029 111.188 43.2504" fill="#A77646"/>
<path d="M117.244 40.4014H118.131V44.3882C118.131 44.7074 118.232 44.9479 118.431 45.1098C118.634 45.2716 118.879 45.3549 119.165 45.3549C119.452 45.3549 119.701 45.2716 119.909 45.1098C120.117 44.9479 120.218 44.7074 120.218 44.3882V40.4014H121.105V44.3882C121.105 44.7953 121.008 45.1375 120.814 45.4196C120.62 45.7018 120.385 45.9006 120.098 46.0209C119.816 46.1412 119.502 46.2013 119.165 46.2013C118.629 46.2013 118.177 46.0487 117.803 45.748C117.428 45.4428 117.244 44.9895 117.244 44.3882V40.4014Z" fill="#A77646"/>
<path d="M123.747 40.369L125.826 44.0691L126.158 44.9293L126.181 44.9201L126.066 43.8656V40.369H126.948V46.0949H125.973L123.872 42.3856L123.433 41.5299L123.405 41.5392L123.53 42.5983V46.0949H122.648V40.369H123.747Z" fill="#A77646"/>
<path d="M127.867 40.3829H131.539V41.2293H130.149V46.0949H129.267V41.2293H127.867V40.3829Z" fill="#A77646"/>
<path d="M134.763 43.8749L136.463 46.0903H135.359L133.71 43.9119H133.281V46.0903H132.394V40.3875H134.218C134.8 40.3875 135.267 40.5309 135.622 40.8223C135.978 41.1091 136.158 41.5577 136.163 42.1636C136.163 42.6585 136.043 43.0516 135.78 43.343C135.521 43.6297 135.179 43.8101 134.763 43.8749ZM133.276 43.0655H134.223C134.551 43.0655 134.805 42.9868 134.994 42.825C135.184 42.6631 135.276 42.4411 135.276 42.1543C135.276 41.8676 135.179 41.6363 134.99 41.4744C134.8 41.3126 134.546 41.2339 134.223 41.2339H133.276V43.0655Z" fill="#A77646"/>
<path d="M138.071 40.3783H137.184V46.0949H138.071V40.3783Z" fill="#A77646"/>
<path d="M142.454 40.369V41.2154H140.149V42.8157H142.426V43.6621H140.149C140.149 43.8425 140.149 44.1015 140.149 44.4483C140.149 44.7952 140.144 45.0588 140.144 45.2392H142.459V46.0856H139.267V40.369H142.459H142.454Z" fill="#A77646"/>
<path d="M144.191 41.8907C144.181 42.0572 144.232 42.2052 144.348 42.3301C144.463 42.4549 144.588 42.5428 144.713 42.6029C144.837 42.6584 144.99 42.7093 145.161 42.7556C145.369 42.8111 145.544 42.8619 145.687 42.9128C145.835 42.9637 145.992 43.0423 146.158 43.1395C146.325 43.2412 146.459 43.3522 146.556 43.4817C146.657 43.6112 146.736 43.7685 146.8 43.9673C146.865 44.1616 146.888 44.3836 146.879 44.6334C146.851 45.1421 146.657 45.5352 146.288 45.8127C145.918 46.0903 145.489 46.229 144.994 46.229C144.593 46.229 144.218 46.118 143.867 45.8914C143.516 45.6647 143.262 45.341 143.105 44.9109L143.812 44.5455C144.071 45.1051 144.472 45.3826 145.013 45.3826C145.295 45.3872 145.526 45.3179 145.701 45.1652C145.881 45.0172 145.974 44.823 145.987 44.5825C145.997 44.4206 145.974 44.2772 145.914 44.157C145.854 44.0367 145.761 43.935 145.636 43.861C145.512 43.7823 145.396 43.7268 145.295 43.6852C145.193 43.6436 145.064 43.6066 144.916 43.565C144.74 43.5141 144.588 43.4678 144.459 43.4216C144.325 43.3753 144.181 43.306 144.02 43.2135C143.858 43.121 143.729 43.0192 143.627 42.9036C143.526 42.7879 143.438 42.6399 143.373 42.4596C143.304 42.2792 143.276 42.0757 143.281 41.8583C143.29 41.3357 143.475 40.9379 143.83 40.6604C144.186 40.3829 144.602 40.2488 145.078 40.2488C145.466 40.2488 145.817 40.3598 146.126 40.5818C146.436 40.8038 146.662 41.1229 146.8 41.5346L146.094 41.8676C145.992 41.6178 145.844 41.4282 145.655 41.294C145.466 41.1599 145.267 41.0952 145.064 41.0952C144.837 41.0905 144.639 41.1553 144.468 41.294C144.297 41.4328 144.205 41.6317 144.186 41.8907" fill="#A77646"/>
<path d="M185.379 37.8498C182.902 37.7745 180.421 35.6632 177.941 34.4701C176.964 33.9997 175.979 33.5368 174.998 33.0663C174.889 33.2658 174.776 33.4653 174.663 33.6647C177.621 35.3583 180.583 37.0557 183.767 38.881C183.184 39.2799 182.816 39.5961 182.395 39.8031C178.294 41.8504 174.201 43.9128 170.07 45.9C167.154 47.3038 165.203 46.1107 165.199 42.9343C165.18 35.0083 165.188 27.0823 165.244 19.1564C165.271 15.5321 166.947 12.7659 170.052 10.9368C174.701 8.19696 179.41 5.55873 184.041 2.78125C184.533 2.48393 184.958 2.35597 185.371 2.35597V0C184.86 0 184.338 0.173122 183.729 0.541948C179.046 3.37588 174.287 6.08562 169.533 8.79536C165.289 11.2191 163.196 14.8622 163.215 19.7322C163.245 27.4399 163.282 35.1476 163.35 42.8515C163.391 47.586 166.812 49.6372 171.014 47.4543C175.411 45.1661 179.756 42.7875 184.195 40.5821C184.522 40.4203 184.943 40.33 185.379 40.3111V37.8498Z" fill="#A77646"/>
<path d="M185.379 37.8498C187.856 37.7745 190.337 35.6632 192.817 34.4701C193.795 33.9997 194.779 33.5368 195.76 33.0663C195.869 33.2658 195.982 33.4653 196.091 33.6647C193.133 35.3583 190.171 37.0557 186.988 38.881C187.57 39.2799 187.939 39.5961 188.36 39.8031C192.46 41.8504 196.553 43.9128 200.684 45.9C203.601 47.3038 205.551 46.1107 205.555 42.9343C205.574 35.0083 205.566 27.0823 205.51 19.1564C205.484 15.5321 203.807 12.7659 200.703 10.9368C196.053 8.19696 191.34 5.55873 186.713 2.78125C186.221 2.48393 185.796 2.35597 185.383 2.35597V0C185.894 0 186.417 0.173122 187.025 0.541948C191.709 3.37588 196.467 6.08562 201.222 8.79536C205.472 11.2191 207.566 14.8622 207.547 19.7322C207.517 27.4399 207.48 35.1476 207.412 42.8515C207.371 47.586 203.946 49.6372 199.748 47.4543C195.351 45.1661 191.002 42.7875 186.567 40.5821C186.24 40.4203 185.819 40.33 185.383 40.3111V37.8498H185.379Z" fill="#E7AC6D"/>
</svg>
