<svg width="974" height="634" viewBox="0 0 974 634" fill="none" xmlns="http://www.w3.org/2000/svg">
<rect width="974" height="634" rx="10" fill="#212121"/>
<path fill-rule="evenodd" clip-rule="evenodd" d="M486.5 232C488.433 232 490 233.567 490 235.5V249.5C490 251.433 488.433 253 486.5 253C484.567 253 483 251.433 483 249.5V235.5C483 233.567 484.567 232 486.5 232Z" fill="white"/>
<path fill-rule="evenodd" clip-rule="evenodd" d="M518.681 245.318C520.048 246.685 520.048 248.901 518.681 250.268L508.794 260.156C507.427 261.522 505.211 261.522 503.844 260.156C502.477 258.789 502.477 256.573 503.844 255.206L513.731 245.318C515.098 243.951 517.314 243.951 518.681 245.318V245.318Z" fill="white"/>
<path fill-rule="evenodd" clip-rule="evenodd" d="M511 277.5C511 275.567 512.567 274 514.5 274H528.5C530.433 274 532 275.567 532 277.5C532 279.433 530.433 281 528.5 281H514.5C512.567 281 511 279.433 511 277.5Z" fill="white"/>
<path fill-rule="evenodd" clip-rule="evenodd" d="M503.844 294.844C505.211 293.477 507.427 293.477 508.794 294.844L518.681 304.731C520.048 306.098 520.048 308.314 518.681 309.681C517.314 311.048 515.098 311.048 513.731 309.681L503.844 299.794C502.477 298.427 502.477 296.21 503.844 294.844Z" fill="white"/>
<path fill-rule="evenodd" clip-rule="evenodd" d="M486.5 302C488.433 302 490 303.567 490 305.5V319.5C490 321.433 488.433 323 486.5 323C484.567 323 483 321.433 483 319.5V305.5C483 303.567 484.567 302 486.5 302Z" fill="white"/>
<path fill-rule="evenodd" clip-rule="evenodd" d="M469.155 294.844C470.522 296.21 470.522 298.427 469.155 299.794L459.268 309.681C457.901 311.048 455.685 311.048 454.318 309.681C452.951 308.314 452.951 306.098 454.318 304.731L464.205 294.844C465.572 293.477 467.788 293.477 469.155 294.844Z" fill="white"/>
<path fill-rule="evenodd" clip-rule="evenodd" d="M441 277.5C441 275.567 442.567 274 444.5 274H458.5C460.433 274 462 275.567 462 277.5C462 279.433 460.433 281 458.5 281H444.5C442.567 281 441 279.433 441 277.5Z" fill="white"/>
<path fill-rule="evenodd" clip-rule="evenodd" d="M454.318 245.318C455.685 243.951 457.901 243.951 459.268 245.318L469.155 255.206C470.522 256.573 470.522 258.789 469.155 260.156C467.788 261.522 465.572 261.522 464.205 260.156L454.318 250.268C452.951 248.901 452.951 246.685 454.318 245.318V245.318Z" fill="white"/>
<path d="M200.252 561.211C200.252 562.27 200.14 563.176 199.917 563.929C199.705 564.682 199.393 565.3 198.981 565.782C198.581 566.253 198.087 566.6 197.499 566.824C196.911 567.047 196.24 567.159 195.487 567.159C194.734 567.159 194.063 567.047 193.475 566.824C192.887 566.6 192.386 566.253 191.975 565.782C191.575 565.3 191.269 564.682 191.057 563.929C190.845 563.176 190.739 562.27 190.739 561.211V559.693C190.739 558.634 190.845 557.728 191.057 556.975C191.269 556.222 191.575 555.605 191.975 555.122C192.386 554.64 192.887 554.287 193.475 554.063C194.063 553.84 194.734 553.728 195.487 553.728C196.24 553.728 196.911 553.84 197.499 554.063C198.087 554.287 198.581 554.64 198.981 555.122C199.393 555.605 199.705 556.222 199.917 556.975C200.14 557.728 200.252 558.634 200.252 559.693V561.211ZM197.234 559.693C197.234 558.999 197.187 558.428 197.093 557.981C197.011 557.534 196.887 557.181 196.722 556.922C196.569 556.663 196.387 556.487 196.175 556.393C195.963 556.287 195.734 556.234 195.487 556.234C195.24 556.234 195.01 556.287 194.799 556.393C194.587 556.487 194.404 556.663 194.251 556.922C194.098 557.181 193.975 557.534 193.881 557.981C193.798 558.428 193.757 558.999 193.757 559.693V561.211C193.757 561.905 193.798 562.476 193.881 562.923C193.975 563.37 194.098 563.723 194.251 563.982C194.404 564.241 194.587 564.417 194.799 564.511C195.01 564.606 195.24 564.653 195.487 564.653C195.734 564.653 195.963 564.606 196.175 564.511C196.387 564.417 196.569 564.241 196.722 563.982C196.887 563.723 197.011 563.37 197.093 562.923C197.187 562.476 197.234 561.905 197.234 561.211V559.693ZM211.628 561.211C211.628 562.27 211.516 563.176 211.292 563.929C211.08 564.682 210.769 565.3 210.357 565.782C209.957 566.253 209.463 566.6 208.874 566.824C208.286 567.047 207.615 567.159 206.862 567.159C206.109 567.159 205.439 567.047 204.85 566.824C204.262 566.6 203.762 566.253 203.35 565.782C202.95 565.3 202.644 564.682 202.432 563.929C202.221 563.176 202.115 562.27 202.115 561.211V559.693C202.115 558.634 202.221 557.728 202.432 556.975C202.644 556.222 202.95 555.605 203.35 555.122C203.762 554.64 204.262 554.287 204.85 554.063C205.439 553.84 206.109 553.728 206.862 553.728C207.615 553.728 208.286 553.84 208.874 554.063C209.463 554.287 209.957 554.64 210.357 555.122C210.769 555.605 211.08 556.222 211.292 556.975C211.516 557.728 211.628 558.634 211.628 559.693V561.211ZM208.61 559.693C208.61 558.999 208.562 558.428 208.468 557.981C208.386 557.534 208.262 557.181 208.098 556.922C207.945 556.663 207.762 556.487 207.551 556.393C207.339 556.287 207.109 556.234 206.862 556.234C206.615 556.234 206.386 556.287 206.174 556.393C205.962 556.487 205.78 556.663 205.627 556.922C205.474 557.181 205.35 557.534 205.256 557.981C205.174 558.428 205.133 558.999 205.133 559.693V561.211C205.133 561.905 205.174 562.476 205.256 562.923C205.35 563.37 205.474 563.723 205.627 563.982C205.78 564.241 205.962 564.417 206.174 564.511C206.386 564.606 206.615 564.653 206.862 564.653C207.109 564.653 207.339 564.606 207.551 564.511C207.762 564.417 207.945 564.241 208.098 563.982C208.262 563.723 208.386 563.37 208.468 562.923C208.562 562.476 208.61 561.905 208.61 561.211V559.693ZM216.367 559.905C216.367 559.999 216.332 560.082 216.261 560.152C216.19 560.211 216.108 560.24 216.014 560.24H213.949C213.855 560.24 213.767 560.211 213.684 560.152C213.614 560.082 213.578 559.999 213.578 559.905V557.681C213.578 557.587 213.614 557.505 213.684 557.434C213.767 557.364 213.855 557.328 213.949 557.328H216.014C216.108 557.328 216.19 557.364 216.261 557.434C216.332 557.505 216.367 557.587 216.367 557.681V559.905ZM216.367 566.647C216.367 566.741 216.332 566.824 216.261 566.894C216.19 566.965 216.108 567 216.014 567H213.949C213.855 567 213.767 566.965 213.684 566.894C213.614 566.824 213.578 566.741 213.578 566.647V564.423C213.578 564.329 213.614 564.253 213.684 564.194C213.767 564.123 213.855 564.088 213.949 564.088H216.014C216.108 564.088 216.19 564.123 216.261 564.194C216.332 564.253 216.367 564.329 216.367 564.423V566.647ZM228.11 563.7C228.11 563.794 228.075 563.876 228.005 563.947C227.934 564.017 227.852 564.053 227.757 564.053H226.593V566.647C226.593 566.741 226.557 566.824 226.487 566.894C226.428 566.965 226.351 567 226.257 567H223.91C223.816 567 223.733 566.965 223.663 566.894C223.604 566.824 223.575 566.741 223.575 566.647V564.053H218.474C218.38 564.053 218.298 564.017 218.227 563.947C218.156 563.876 218.121 563.794 218.121 563.7V561.988C218.121 561.811 218.186 561.629 218.315 561.441L223.892 554.134C223.951 554.051 224.016 553.993 224.086 553.957C224.157 553.91 224.245 553.887 224.351 553.887H226.24C226.334 553.887 226.416 553.922 226.487 553.993C226.557 554.063 226.593 554.146 226.593 554.24V561.723H227.757C227.852 561.723 227.934 561.758 228.005 561.829C228.075 561.899 228.11 561.982 228.11 562.076V563.7ZM223.663 557.84C223.663 557.77 223.639 557.734 223.592 557.734C223.58 557.734 223.563 557.746 223.539 557.77L220.768 561.546C220.745 561.57 220.733 561.605 220.733 561.652C220.733 561.699 220.768 561.723 220.839 561.723H223.663V557.84ZM239.239 561.211C239.239 562.27 239.127 563.176 238.903 563.929C238.692 564.682 238.38 565.3 237.968 565.782C237.568 566.253 237.074 566.6 236.485 566.824C235.897 567.047 235.227 567.159 234.473 567.159C233.72 567.159 233.05 567.047 232.461 566.824C231.873 566.6 231.373 566.253 230.961 565.782C230.561 565.3 230.255 564.682 230.044 563.929C229.832 563.176 229.726 562.27 229.726 561.211V559.693C229.726 558.634 229.832 557.728 230.044 556.975C230.255 556.222 230.561 555.605 230.961 555.122C231.373 554.64 231.873 554.287 232.461 554.063C233.05 553.84 233.72 553.728 234.473 553.728C235.227 553.728 235.897 553.84 236.485 554.063C237.074 554.287 237.568 554.64 237.968 555.122C238.38 555.605 238.692 556.222 238.903 556.975C239.127 557.728 239.239 558.634 239.239 559.693V561.211ZM236.221 559.693C236.221 558.999 236.174 558.428 236.08 557.981C235.997 557.534 235.874 557.181 235.709 556.922C235.556 556.663 235.374 556.487 235.162 556.393C234.95 556.287 234.721 556.234 234.473 556.234C234.226 556.234 233.997 556.287 233.785 556.393C233.573 556.487 233.391 556.663 233.238 556.922C233.085 557.181 232.962 557.534 232.867 557.981C232.785 558.428 232.744 558.999 232.744 559.693V561.211C232.744 561.905 232.785 562.476 232.867 562.923C232.962 563.37 233.085 563.723 233.238 563.982C233.391 564.241 233.573 564.417 233.785 564.511C233.997 564.606 234.226 564.653 234.473 564.653C234.721 564.653 234.95 564.606 235.162 564.511C235.374 564.417 235.556 564.241 235.709 563.982C235.874 563.723 235.997 563.37 236.08 562.923C236.174 562.476 236.221 561.905 236.221 561.211V559.693Z" fill="white"/>
<rect x="33" y="578.615" width="734.16" height="15.2218" rx="7.61091" fill="#4F4F4F"/>
<rect x="33" y="578.615" width="187.346" height="15.2218" rx="7.61091" fill="#FF0404"/>
<path d="M924.754 576.415H920.132C919.28 576.415 918.591 577.104 918.591 577.956V582.578C918.591 583.43 919.28 584.119 920.132 584.119C920.983 584.119 921.672 583.43 921.672 582.578V579.497H924.754C925.606 579.497 926.295 578.808 926.295 577.956C926.295 577.104 925.606 576.415 924.754 576.415ZM938.621 576.415H933.999C933.147 576.415 932.458 577.104 932.458 577.956C932.458 578.808 933.147 579.497 933.999 579.497H937.08V582.578C937.08 583.43 937.769 584.119 938.621 584.119C939.473 584.119 940.162 583.43 940.162 582.578V577.956C940.162 577.104 939.473 576.415 938.621 576.415ZM924.754 594.905H921.672V591.823C921.672 590.971 920.983 590.282 920.132 590.282C919.28 590.282 918.591 590.971 918.591 591.823V596.446C918.591 597.297 919.28 597.986 920.132 597.986H924.754C925.606 597.986 926.295 597.297 926.295 596.446C926.295 595.594 925.606 594.905 924.754 594.905ZM938.621 590.282C937.769 590.282 937.08 590.971 937.08 591.823V594.905H933.999C933.147 594.905 932.458 595.594 932.458 596.446C932.458 597.297 933.147 597.986 933.999 597.986H938.621C939.473 597.986 940.162 597.297 940.162 596.446V591.823C940.162 590.971 939.473 590.282 938.621 590.282Z" fill="white"/>
<path d="M819.805 580.741C820.001 581.268 819.835 581.863 819.429 582.249L816.849 584.663C816.914 585.172 816.95 585.693 816.95 586.22C816.95 586.747 816.914 587.268 816.849 587.776L819.429 590.191C819.835 590.577 820.001 591.171 819.805 591.698C819.543 592.428 819.227 593.132 818.869 593.8L818.589 594.297C818.196 594.971 817.755 595.608 817.272 596.215C816.914 596.65 816.336 596.803 815.812 596.632L812.492 595.541C811.693 596.172 810.758 596.699 809.87 597.104L809.125 600.603C809.005 601.154 808.588 601.546 808.04 601.694C807.217 601.834 806.371 601.908 805.453 601.908C804.643 601.908 803.796 601.834 802.974 601.694C802.426 601.546 802.008 601.154 801.889 600.603L801.144 597.104C800.203 596.699 799.32 596.172 798.522 595.541L795.205 596.632C794.678 596.803 794.097 596.65 793.744 596.215C793.26 595.608 792.819 594.971 792.426 594.297L792.147 593.8C791.785 593.132 791.471 592.428 791.207 591.698C791.014 591.171 791.176 590.577 791.585 590.191L794.163 587.776C794.098 587.268 794.064 586.747 794.064 586.22C794.064 585.693 794.098 585.172 794.163 584.663L791.585 582.249C791.176 581.863 791.014 581.274 791.207 580.741C791.471 580.012 791.786 579.307 792.147 578.639L792.425 578.143C792.819 577.469 793.26 576.832 793.744 576.228C794.097 575.79 794.678 575.638 795.205 575.811L798.522 576.899C799.32 576.265 800.203 575.738 801.144 575.338L801.889 571.839C802.008 571.283 802.426 570.841 802.974 570.747C803.796 570.605 804.643 570.532 805.507 570.532C806.371 570.532 807.217 570.605 808.04 570.747C808.588 570.841 809.005 571.283 809.125 571.839L809.87 575.338C810.758 575.738 811.693 576.265 812.492 576.899L815.812 575.811C816.336 575.638 816.914 575.79 817.272 576.228C817.755 576.832 818.196 577.469 818.589 578.143L818.869 578.639C819.227 579.307 819.543 580.012 819.805 580.741ZM805.507 591.122C808.141 591.122 810.275 588.929 810.275 586.165C810.275 583.511 808.141 581.262 805.507 581.262C802.873 581.262 800.739 583.511 800.739 586.165C800.739 588.929 802.873 591.122 805.507 591.122Z" fill="white"/>
<rect x="845.053" y="573.473" width="49.0254" height="25.4932" rx="0.980507" fill="black" stroke="white" stroke-width="1.96101"/>
<path d="M855.425 592.179C855.425 592.262 855.393 592.336 855.331 592.398C855.268 592.461 855.195 592.492 855.111 592.492H853.275C853.192 592.492 853.113 592.461 853.04 592.398C852.977 592.336 852.946 592.262 852.946 592.179V590.202C852.946 590.118 852.977 590.05 853.04 589.998C853.113 589.935 853.192 589.904 853.275 589.904H855.111C855.195 589.904 855.268 589.935 855.331 589.998C855.393 590.05 855.425 590.118 855.425 590.202V592.179ZM865.221 582.499C865.221 582.604 865.194 582.713 865.142 582.829C865.1 582.944 865.043 583.074 864.97 583.221L860.844 592.194C860.749 592.393 860.619 592.492 860.451 592.492H858.302C858.114 592.492 858.02 592.43 858.02 592.304C858.02 592.252 858.035 592.194 858.067 592.132L862.334 583.174C862.344 583.153 862.35 583.127 862.35 583.095C862.35 583.032 862.313 583.001 862.24 583.001H857.894C857.811 583.001 857.732 582.975 857.659 582.923C857.596 582.86 857.565 582.787 857.565 582.703V581.134C857.565 581.051 857.596 580.983 857.659 580.93C857.732 580.867 857.811 580.836 857.894 580.836H864.687C864.834 580.836 864.959 580.888 865.064 580.993C865.168 581.087 865.221 581.207 865.221 581.354V582.499ZM875.332 588.79C875.332 590.035 874.971 590.986 874.25 591.645C873.528 592.304 872.477 592.634 871.096 592.634C870.594 592.634 870.066 592.592 869.512 592.508C868.968 592.435 868.466 592.325 868.006 592.179C867.922 592.158 867.849 592.126 867.786 592.084C867.723 592.032 867.692 591.949 867.692 591.833V590.594C867.692 590.51 867.718 590.442 867.77 590.39C867.823 590.338 867.891 590.312 867.974 590.312H868.006C868.257 590.343 868.513 590.369 868.774 590.39C869.046 590.411 869.308 590.432 869.559 590.453C869.82 590.463 870.061 590.474 870.28 590.484C870.5 590.495 870.683 590.5 870.83 590.5C871.206 590.5 871.509 590.463 871.739 590.39C871.97 590.307 872.153 590.191 872.289 590.045C872.424 589.899 872.513 589.721 872.555 589.512C872.608 589.302 872.634 589.062 872.634 588.79V588.664C872.634 588.403 872.597 588.183 872.524 588.006C872.461 587.817 872.341 587.666 872.163 587.551C871.996 587.436 871.771 587.352 871.488 587.3C871.206 587.247 870.845 587.221 870.406 587.221H867.974C867.912 587.221 867.859 587.2 867.817 587.158C867.776 587.106 867.755 587.054 867.755 587.002V586.986L868.241 581.134C868.251 581.051 868.283 580.983 868.335 580.93C868.398 580.867 868.471 580.836 868.555 580.836H874.657C874.741 580.836 874.814 580.867 874.877 580.93C874.94 580.983 874.971 581.051 874.971 581.134V582.703C874.971 582.787 874.94 582.86 874.877 582.923C874.814 582.975 874.741 583.001 874.657 583.001H870.39L870.202 585.166H870.657C871.337 585.166 871.959 585.224 872.524 585.339C873.099 585.443 873.596 585.631 874.014 585.903C874.433 586.165 874.757 586.52 874.987 586.97C875.217 587.42 875.332 587.985 875.332 588.664V588.79Z" fill="white"/>
</svg>
