<svg width="988" height="88" viewBox="0 0 988 88" fill="none" xmlns="http://www.w3.org/2000/svg">
<rect x="0.5" y="0.5" width="987" height="87" rx="15.5" fill="#FEFEFE" stroke="#D4D4D4" stroke-dasharray="4 4"/>
<path d="M408.073 45.496C407.657 45.496 407.3 45.6293 407.001 45.896C406.702 46.152 406.553 46.5413 406.553 47.064C406.553 47.5973 406.702 48.0347 407.001 48.376C407.3 48.7067 407.657 48.9627 408.073 49.144C408.5 48.9627 408.862 48.7067 409.161 48.376C409.46 48.0347 409.609 47.5973 409.609 47.064C409.609 46.5413 409.454 46.152 409.145 45.896C408.846 45.6293 408.489 45.496 408.073 45.496ZM406.041 49.416C405.636 49.1387 405.31 48.7867 405.065 48.36C404.83 47.9227 404.713 47.448 404.713 46.936C404.713 46.0613 405.001 45.368 405.577 44.856C406.153 44.3333 406.985 44.072 408.073 44.072C409.161 44.072 409.993 44.3333 410.569 44.856C411.145 45.368 411.433 46.0613 411.433 46.936C411.433 47.448 411.31 47.9227 411.065 48.36C410.83 48.7867 410.51 49.1387 410.105 49.416H412.377C412.59 49.416 412.75 49.4693 412.857 49.576C412.964 49.672 413.017 49.8693 413.017 50.168C413.017 50.4773 412.964 50.696 412.857 50.824C412.761 50.9413 412.601 51 412.377 51H410.345C409.854 51 409.422 50.9787 409.049 50.936C408.686 50.8933 408.366 50.7867 408.089 50.616C407.705 50.7973 407.294 50.9093 406.857 50.952C406.42 50.984 405.902 51 405.305 51H399.593C398.921 51 398.441 50.84 398.153 50.52C397.865 50.1893 397.721 49.6773 397.721 48.984V45.512C397.721 45.4053 397.774 45.352 397.881 45.352H399.353C399.46 45.352 399.513 45.4053 399.513 45.512V48.568C399.513 48.888 399.572 49.112 399.689 49.24C399.817 49.3573 400.014 49.416 400.281 49.416H406.041ZM407.273 42.76C407.166 42.76 407.113 42.7067 407.113 42.6V41.224C407.113 41.1173 407.166 41.064 407.273 41.064H408.809C408.916 41.064 408.969 41.1173 408.969 41.224V42.6C408.969 42.7067 408.916 42.76 408.809 42.76H407.273ZM413.159 49.416C413.426 49.416 413.618 49.3573 413.735 49.24C413.863 49.112 413.927 48.888 413.927 48.568V40.28C413.927 40.1733 413.98 40.12 414.087 40.12H415.575C415.682 40.12 415.735 40.1733 415.735 40.28V48.424C415.735 48.744 415.852 48.9893 416.087 49.16C416.332 49.3307 416.658 49.416 417.063 49.416H417.335C417.548 49.416 417.708 49.4747 417.815 49.592C417.922 49.7093 417.975 49.9067 417.975 50.184C417.975 50.4933 417.922 50.7067 417.815 50.824C417.719 50.9413 417.559 51 417.335 51C416.919 51 416.556 50.952 416.247 50.856C415.938 50.7493 415.692 50.5253 415.511 50.184C415.362 50.4827 415.143 50.696 414.855 50.824C414.578 50.9413 414.199 51 413.719 51H412.375C412.162 51 412.002 50.952 411.895 50.856C411.788 50.7493 411.735 50.5253 411.735 50.184C411.735 49.896 411.788 49.6987 411.895 49.592C411.991 49.4747 412.151 49.416 412.375 49.416H413.159ZM422.224 45.672C421.712 45.672 421.333 45.8373 421.088 46.168C420.843 46.4987 420.72 46.9787 420.72 47.608C420.72 48.2907 420.843 48.7813 421.088 49.08C421.333 49.3787 421.712 49.528 422.224 49.528C422.747 49.528 423.131 49.3787 423.376 49.08C423.621 48.7707 423.744 48.28 423.744 47.608C423.744 46.3173 423.237 45.672 422.224 45.672ZM418.944 47.48C418.955 46.8613 419.04 46.3387 419.2 45.912C419.371 45.4747 419.6 45.1227 419.888 44.856C420.187 44.5787 420.533 44.3813 420.928 44.264C421.323 44.136 421.755 44.072 422.224 44.072C422.693 44.072 423.131 44.136 423.536 44.264C423.941 44.392 424.288 44.5947 424.576 44.872C424.875 45.1493 425.104 45.5173 425.264 45.976C425.435 46.4347 425.52 46.9893 425.52 47.64C425.52 47.736 425.52 47.832 425.52 47.928C425.52 48.0133 425.515 48.0987 425.504 48.184C425.515 48.632 425.616 48.952 425.808 49.144C426.011 49.3253 426.24 49.416 426.496 49.416H426.96C427.173 49.416 427.333 49.4747 427.44 49.592C427.547 49.7093 427.6 49.9067 427.6 50.184C427.6 50.4933 427.547 50.7067 427.44 50.824C427.344 50.9413 427.184 51 426.96 51C426.779 51 426.587 50.9947 426.384 50.984C426.192 50.9733 425.995 50.9413 425.792 50.888C425.6 50.824 425.413 50.7387 425.232 50.632C425.061 50.5147 424.907 50.3547 424.768 50.152C424.48 50.4933 424.117 50.7387 423.68 50.888C423.253 51.0373 422.768 51.112 422.224 51.112C421.691 51.112 421.211 51.0427 420.784 50.904C420.357 50.7547 420 50.5147 419.712 50.184C419.605 50.3547 419.477 50.4933 419.328 50.6C419.179 50.7067 419.024 50.792 418.864 50.856C418.704 50.9093 418.539 50.9467 418.368 50.968C418.197 50.9893 418.037 51 417.888 51H417.328C417.115 51 416.955 50.9413 416.848 50.824C416.741 50.696 416.688 50.488 416.688 50.2C416.688 49.8907 416.741 49.6827 416.848 49.576C416.944 49.4693 417.104 49.416 417.328 49.416H417.952C418.208 49.416 418.437 49.3147 418.64 49.112C418.843 48.8987 418.949 48.5147 418.96 47.96C418.949 47.8747 418.944 47.7947 418.944 47.72C418.944 47.6453 418.944 47.5653 418.944 47.48ZM426.938 51C426.724 51 426.564 50.952 426.457 50.856C426.351 50.7493 426.297 50.5413 426.297 50.232C426.297 49.9333 426.351 49.7253 426.457 49.608C426.553 49.48 426.713 49.416 426.938 49.416H427.722C427.988 49.416 428.18 49.3573 428.298 49.24C428.426 49.112 428.49 48.888 428.49 48.568V40.28C428.49 40.1733 428.543 40.12 428.65 40.12H430.138C430.244 40.12 430.298 40.1733 430.298 40.28V48.984C430.298 49.6773 430.154 50.1893 429.866 50.52C429.578 50.84 429.098 51 428.426 51H426.938ZM434.192 50.84C434.192 50.9467 434.138 51 434.032 51H432.544C432.437 51 432.384 50.9467 432.384 50.84V40.28C432.384 40.1733 432.437 40.12 432.544 40.12H434.032C434.138 40.12 434.192 40.1733 434.192 40.28V50.84ZM451.624 48.472C451.645 48.7813 451.773 49.016 452.008 49.176C452.242 49.336 452.557 49.416 452.952 49.416H453.224C453.437 49.416 453.597 49.4747 453.704 49.592C453.81 49.7093 453.864 49.9067 453.864 50.184C453.864 50.4933 453.81 50.7067 453.704 50.824C453.608 50.9413 453.448 51 453.224 51C452.818 51 452.461 50.952 452.152 50.856C451.842 50.7493 451.597 50.5253 451.416 50.184C451.266 50.4827 451.042 50.696 450.744 50.824C450.456 50.9413 450.061 51 449.56 51H441.736C441.064 51 440.584 50.84 440.296 50.52C440.008 50.1893 439.864 49.6773 439.864 48.984V45.544C439.864 45.4373 439.917 45.384 440.024 45.384H441.496C441.602 45.384 441.656 45.4373 441.656 45.544V48.568C441.656 48.888 441.714 49.112 441.832 49.24C441.96 49.3573 442.157 49.416 442.424 49.416H449.048C449.229 49.416 449.368 49.3947 449.464 49.352C449.57 49.2987 449.65 49.2187 449.704 49.112C449.757 49.0053 449.789 48.8613 449.8 48.68C449.821 48.4987 449.832 48.28 449.832 48.024V44.52C449.832 44.4133 449.885 44.36 449.992 44.36H451.464C451.57 44.36 451.624 44.4133 451.624 44.52V48.472ZM444.952 54.072C444.845 54.072 444.792 54.0187 444.792 53.912V52.536C444.792 52.4293 444.845 52.376 444.952 52.376H446.488C446.594 52.376 446.648 52.4293 446.648 52.536V53.912C446.648 54.0187 446.594 54.072 446.488 54.072H444.952ZM453.989 45.368C454.319 44.9947 454.714 44.6853 455.173 44.44C455.631 44.1947 456.191 44.072 456.853 44.072C457.567 44.072 458.165 44.184 458.645 44.408C459.125 44.6213 459.509 44.9147 459.797 45.288C460.085 45.6507 460.287 46.0773 460.405 46.568C460.533 47.048 460.597 47.56 460.597 48.104C460.597 48.1787 460.591 48.248 460.581 48.312C460.581 48.376 460.581 48.44 460.581 48.504C460.613 48.792 460.741 49.016 460.965 49.176C461.199 49.336 461.514 49.416 461.909 49.416H462.181C462.394 49.416 462.554 49.4747 462.661 49.592C462.767 49.7093 462.821 49.9067 462.821 50.184C462.821 50.4933 462.767 50.7067 462.661 50.824C462.565 50.9413 462.405 51 462.181 51C461.733 51 461.338 50.9413 460.997 50.824C460.666 50.7067 460.41 50.4507 460.229 50.056C460.026 50.4187 459.743 50.6693 459.381 50.808C459.029 50.936 458.597 51 458.085 51H453.141C452.927 51 452.767 50.9413 452.661 50.824C452.554 50.696 452.501 50.488 452.501 50.2C452.501 49.8907 452.554 49.6827 452.661 49.576C452.757 49.4693 452.917 49.416 453.141 49.416H457.397C457.674 49.416 457.898 49.3947 458.069 49.352C458.239 49.3093 458.373 49.2347 458.469 49.128C458.565 49.0213 458.629 48.8827 458.661 48.712C458.693 48.5307 458.709 48.312 458.709 48.056C458.709 47.7147 458.677 47.4 458.613 47.112C458.549 46.824 458.442 46.5733 458.293 46.36C458.143 46.1467 457.946 45.9813 457.701 45.864C457.466 45.736 457.167 45.672 456.805 45.672C456.453 45.672 456.133 45.7413 455.845 45.88C455.557 46.0187 455.301 46.2053 455.077 46.44C455.002 46.5147 454.927 46.52 454.853 46.456L454.021 45.592C453.935 45.5067 453.925 45.432 453.989 45.368ZM466.028 48.424C466.028 48.7653 466.113 49.016 466.284 49.176C466.465 49.336 466.748 49.416 467.132 49.416C467.398 49.416 467.606 49.4 467.756 49.368C467.916 49.3253 468.033 49.2453 468.108 49.128C468.182 49.0107 468.225 48.8507 468.236 48.648C468.257 48.4453 468.268 48.1733 468.268 47.832V45.784C468.268 45.6773 468.321 45.624 468.428 45.624H469.916C470.022 45.624 470.076 45.6773 470.076 45.784V48.456C470.076 48.7867 470.177 49.032 470.38 49.192C470.582 49.3413 470.849 49.416 471.18 49.416C471.425 49.416 471.622 49.4 471.772 49.368C471.921 49.3253 472.033 49.2507 472.108 49.144C472.193 49.0267 472.246 48.8667 472.268 48.664C472.289 48.4507 472.3 48.1787 472.3 47.848V44.52C472.3 44.4133 472.353 44.36 472.46 44.36H473.948C474.054 44.36 474.108 44.4133 474.108 44.52V48.424C474.108 48.744 474.225 48.9893 474.46 49.16C474.705 49.3307 475.03 49.416 475.436 49.416H475.708C475.921 49.416 476.081 49.4747 476.188 49.592C476.294 49.7093 476.348 49.9067 476.348 50.184C476.348 50.4933 476.294 50.7067 476.188 50.824C476.081 50.9413 475.921 51 475.708 51C475.292 51 474.929 50.952 474.62 50.856C474.321 50.7493 474.081 50.5253 473.9 50.184C473.75 50.4827 473.532 50.696 473.244 50.824C472.966 50.9413 472.588 51 472.108 51H471.42C471.046 51 470.726 50.9307 470.46 50.792C470.204 50.6427 470.006 50.4347 469.868 50.168C469.718 50.4773 469.5 50.696 469.212 50.824C468.934 50.9413 468.556 51 468.076 51H467.372C466.614 51 466.097 50.7173 465.82 50.152C465.67 50.4613 465.452 50.68 465.164 50.808C464.886 50.936 464.508 51 464.028 51H462.3C462.182 51 462.075 50.9947 461.979 50.984C461.883 50.9733 461.803 50.9467 461.739 50.904C461.675 50.8507 461.627 50.776 461.595 50.68C461.563 50.584 461.547 50.4507 461.547 50.28C461.547 49.96 461.601 49.736 461.707 49.608C461.803 49.48 461.963 49.416 462.188 49.416H463.468C463.66 49.416 463.804 49.3893 463.9 49.336C464.006 49.272 464.081 49.176 464.124 49.048C464.177 48.92 464.204 48.76 464.204 48.568C464.214 48.3653 464.22 48.12 464.22 47.832V45.784C464.22 45.6773 464.273 45.624 464.38 45.624H465.868C465.974 45.624 466.028 45.6773 466.028 45.784V48.424ZM477.111 54.04C477.004 54.04 476.951 53.9867 476.951 53.88V52.504C476.951 52.3973 477.004 52.344 477.111 52.344H478.647C478.754 52.344 478.807 52.3973 478.807 52.504V53.88C478.807 53.9867 478.754 54.04 478.647 54.04H477.111ZM475.703 51C475.49 51 475.33 50.9627 475.223 50.888C475.116 50.8133 475.063 50.664 475.063 50.44C475.063 50.1733 475.116 49.9387 475.223 49.736C475.319 49.5227 475.479 49.416 475.703 49.416H476.487C476.754 49.416 476.946 49.3573 477.063 49.24C477.191 49.112 477.255 48.888 477.255 48.568V44.52C477.255 44.4133 477.308 44.36 477.415 44.36H478.903C479.01 44.36 479.063 44.4133 479.063 44.52V48.984C479.063 49.6773 478.919 50.1893 478.631 50.52C478.343 50.84 477.863 51 477.191 51H475.703ZM489.555 51.112C489.032 51.112 488.563 51.0373 488.147 50.888C487.741 50.7387 487.4 50.4987 487.123 50.168C487.037 50.3067 486.936 50.4133 486.819 50.488C486.701 50.552 486.589 50.6267 486.483 50.712C486.376 50.7867 486.285 50.888 486.211 51.016C486.136 51.144 486.099 51.3307 486.099 51.576V54.232H484.291V51.24C484.291 50.8987 484.333 50.616 484.419 50.392C484.515 50.168 484.632 49.9813 484.771 49.832C484.92 49.6827 485.075 49.56 485.235 49.464C485.405 49.3573 485.56 49.256 485.699 49.16C485.848 49.0533 485.976 48.9413 486.083 48.824C486.2 48.696 486.269 48.5307 486.291 48.328C486.28 48.2213 486.269 48.1147 486.259 48.008C486.259 47.8907 486.259 47.768 486.259 47.64C486.259 46.9893 486.339 46.4347 486.499 45.976C486.669 45.5173 486.899 45.1493 487.187 44.872C487.485 44.5947 487.837 44.392 488.243 44.264C488.648 44.136 489.085 44.072 489.555 44.072C490.024 44.072 490.461 44.136 490.867 44.264C491.272 44.392 491.619 44.5947 491.907 44.872C492.205 45.1493 492.435 45.5173 492.595 45.976C492.765 46.4347 492.851 46.9893 492.851 47.64C492.851 47.736 492.845 47.832 492.835 47.928C492.835 48.0133 492.829 48.0987 492.819 48.184C492.84 48.632 492.947 48.952 493.139 49.144C493.341 49.3253 493.565 49.416 493.811 49.416H494.275C494.488 49.416 494.648 49.4747 494.755 49.592C494.861 49.7093 494.915 49.9067 494.915 50.184C494.915 50.4933 494.861 50.7067 494.755 50.824C494.659 50.9413 494.499 51 494.275 51C494.093 51 493.901 50.9947 493.699 50.984C493.507 50.9733 493.315 50.9413 493.123 50.888C492.931 50.8347 492.744 50.7547 492.563 50.648C492.392 50.5307 492.237 50.3653 492.099 50.152C491.811 50.4933 491.448 50.7387 491.011 50.888C490.573 51.0373 490.088 51.112 489.555 51.112ZM489.555 45.672C489.043 45.672 488.659 45.8373 488.403 46.168C488.157 46.4987 488.035 46.9787 488.035 47.608C488.035 48.2907 488.157 48.7813 488.403 49.08C488.659 49.3787 489.043 49.528 489.555 49.528C490.067 49.528 490.445 49.3787 490.691 49.08C490.936 48.7707 491.059 48.28 491.059 47.608C491.059 46.3173 490.557 45.672 489.555 45.672ZM499.274 42.76C499.167 42.76 499.114 42.7067 499.114 42.6V41.224C499.114 41.1173 499.167 41.064 499.274 41.064H500.618C500.724 41.064 500.778 41.1173 500.778 41.224V42.6C500.778 42.7067 500.724 42.76 500.618 42.76H499.274ZM497.194 42.76C497.087 42.76 497.034 42.7067 497.034 42.6V41.224C497.034 41.1173 497.087 41.064 497.194 41.064H498.538C498.644 41.064 498.698 41.1173 498.698 41.224V42.6C498.698 42.7067 498.644 42.76 498.538 42.76H497.194ZM494.426 51C494.202 51 494.042 50.9467 493.946 50.84C493.839 50.7333 493.786 50.5147 493.786 50.184C493.786 49.9067 493.839 49.7093 493.946 49.592C494.052 49.4747 494.212 49.416 494.426 49.416H495.946C495.7 48.9573 495.578 48.3653 495.578 47.64C495.578 46.9893 495.663 46.4347 495.834 45.976C496.015 45.5173 496.255 45.1493 496.554 44.872C496.863 44.5947 497.215 44.392 497.61 44.264C498.015 44.136 498.436 44.072 498.874 44.072C499.343 44.072 499.78 44.136 500.186 44.264C500.591 44.392 500.938 44.5947 501.226 44.872C501.524 45.1493 501.754 45.5173 501.914 45.976C502.084 46.4347 502.17 46.9893 502.17 47.64C502.17 48.2693 502.09 48.7973 501.93 49.224C501.77 49.6507 501.546 49.9973 501.258 50.264C500.97 50.5307 500.623 50.7227 500.218 50.84C499.812 50.9467 499.364 51 498.874 51H494.426ZM498.874 45.672C498.383 45.672 498.01 45.8373 497.754 46.168C497.498 46.488 497.37 46.9413 497.37 47.528C497.37 48.232 497.492 48.728 497.738 49.016C497.983 49.2933 498.362 49.432 498.874 49.432C499.396 49.432 499.78 49.2987 500.026 49.032C500.271 48.7547 500.394 48.28 500.394 47.608C500.394 46.3173 499.887 45.672 498.874 45.672ZM510.796 51C510.294 51 509.846 50.9467 509.452 50.84C509.068 50.7227 508.742 50.536 508.476 50.28C508.209 50.0133 508.001 49.672 507.852 49.256C507.713 48.84 507.644 48.328 507.644 47.72C507.644 47.0693 507.729 46.5147 507.9 46.056C508.081 45.5867 508.321 45.208 508.62 44.92C508.929 44.6213 509.281 44.408 509.676 44.28C510.07 44.1413 510.486 44.072 510.924 44.072C511.404 44.072 511.841 44.136 512.236 44.264C512.641 44.392 512.988 44.5947 513.276 44.872C513.564 45.1493 513.788 45.512 513.948 45.96C514.108 46.408 514.188 46.9573 514.188 47.608V51.352C514.188 52.3547 513.937 53.0853 513.436 53.544C512.934 54.0027 512.204 54.232 511.244 54.232H509.084C508.977 54.232 508.924 54.1787 508.924 54.072V52.792C508.924 52.6853 508.977 52.632 509.084 52.632H510.956C511.169 52.632 511.366 52.6107 511.548 52.568C511.729 52.536 511.884 52.4613 512.012 52.344C512.14 52.2267 512.236 52.0613 512.3 51.848C512.374 51.6347 512.412 51.352 512.412 51H510.796ZM510.94 45.672C510.449 45.672 510.07 45.8533 509.804 46.216C509.537 46.5787 509.404 47.064 509.404 47.672C509.404 48.344 509.537 48.8027 509.804 49.048C510.081 49.2933 510.476 49.416 510.988 49.416H512.412V47.592C512.412 46.9627 512.294 46.488 512.06 46.168C511.825 45.8373 511.452 45.672 510.94 45.672ZM518.036 50.84C518.036 50.9467 517.982 51 517.876 51H516.388C516.281 51 516.228 50.9467 516.228 50.84V40.28C516.228 40.1733 516.281 40.12 516.388 40.12H517.876C517.982 40.12 518.036 40.1733 518.036 40.28V50.84ZM523.883 49.416C524.075 49.416 524.225 49.3893 524.331 49.336C524.449 49.272 524.534 49.1707 524.587 49.032C524.641 48.8827 524.673 48.6853 524.683 48.44C524.705 48.184 524.715 47.864 524.715 47.48V40.28C524.715 40.1733 524.769 40.12 524.875 40.12H526.363C526.47 40.12 526.523 40.1733 526.523 40.28V44.968C527.035 44.7227 527.59 44.5147 528.187 44.344C528.795 44.1627 529.425 44.072 530.075 44.072C530.779 44.072 531.377 44.1627 531.867 44.344C532.358 44.5253 532.758 44.7813 533.067 45.112C533.387 45.4427 533.617 45.848 533.755 46.328C533.905 46.7973 533.979 47.32 533.979 47.896C533.979 48.0027 533.974 48.104 533.963 48.2C533.963 48.2853 533.963 48.36 533.963 48.424C533.985 48.744 534.107 48.9893 534.331 49.16C534.566 49.3307 534.886 49.416 535.291 49.416H535.547C535.761 49.416 535.921 49.4747 536.027 49.592C536.134 49.7093 536.187 49.9067 536.187 50.184C536.187 50.4933 536.134 50.7067 536.027 50.824C535.931 50.9413 535.771 51 535.547 51C535.089 51 534.689 50.936 534.347 50.808C534.017 50.6693 533.766 50.3973 533.595 49.992C533.478 50.216 533.334 50.3973 533.163 50.536C533.003 50.664 532.806 50.7653 532.571 50.84C532.347 50.904 532.086 50.9467 531.787 50.968C531.499 50.9893 531.169 51 530.795 51H526.539C526.198 51 525.953 50.9093 525.803 50.728C525.622 50.856 525.409 50.936 525.163 50.968C524.929 50.9893 524.657 51 524.347 51H523.387C523.281 51 523.227 50.9467 523.227 50.84V49.576C523.227 49.4693 523.281 49.416 523.387 49.416H523.883ZM529.819 45.672C529.222 45.672 528.635 45.7627 528.059 45.944C527.483 46.1253 526.971 46.3227 526.523 46.536V48.712C526.523 48.84 526.518 48.9627 526.507 49.08C526.497 49.1973 526.481 49.3093 526.459 49.416H529.947C530.395 49.416 530.758 49.4107 531.035 49.4C531.323 49.3787 531.542 49.32 531.691 49.224C531.851 49.1173 531.958 48.9573 532.011 48.744C532.065 48.52 532.091 48.2107 532.091 47.816C532.091 47.4747 532.054 47.1707 531.979 46.904C531.915 46.6373 531.793 46.4133 531.611 46.232C531.441 46.0507 531.211 45.912 530.923 45.816C530.635 45.72 530.267 45.672 529.819 45.672ZM539.275 42.76C539.168 42.76 539.115 42.7067 539.115 42.6V41.224C539.115 41.1173 539.168 41.064 539.275 41.064H540.811C540.917 41.064 540.971 41.1173 540.971 41.224V42.6C540.971 42.7067 540.917 42.76 540.811 42.76H539.275ZM540.043 44.072C541.269 44.072 542.165 44.3013 542.731 44.76C543.296 45.2187 543.579 45.8213 543.579 46.568C543.579 46.888 543.525 47.192 543.419 47.48C543.323 47.7573 543.195 48.0187 543.035 48.264C542.875 48.4987 542.693 48.712 542.491 48.904C542.288 49.096 542.091 49.256 541.899 49.384C541.984 49.4053 542.075 49.416 542.171 49.416C542.277 49.416 542.389 49.416 542.507 49.416H544.507C544.752 49.416 544.917 49.48 545.003 49.608C545.088 49.736 545.131 49.9493 545.131 50.248C545.131 50.5467 545.077 50.7493 544.97 50.856C544.875 50.952 544.72 51 544.507 51H542.123C541.739 51 541.371 50.968 541.019 50.904C540.677 50.8293 540.352 50.696 540.043 50.504C539.691 50.696 539.317 50.8293 538.923 50.904C538.528 50.968 538.176 51 537.867 51H535.562C535.36 51 535.205 50.9467 535.098 50.84C534.992 50.7333 534.938 50.536 534.938 50.248C534.938 49.9707 534.976 49.7627 535.05 49.624C535.114 49.4853 535.285 49.416 535.562 49.416H537.435C537.605 49.416 537.797 49.4107 538.011 49.4C538.224 49.3787 538.475 49.336 538.763 49.272C538.677 48.92 538.56 48.616 538.411 48.36C538.272 48.104 538.112 47.88 537.931 47.688C537.749 47.4853 537.552 47.3093 537.339 47.16C537.136 47 536.928 46.8453 536.715 46.696C536.597 46.6107 536.528 46.536 536.507 46.472C536.496 46.3973 536.491 46.3173 536.491 46.232V45.224C536.491 45.1067 536.592 44.9787 536.795 44.84C536.997 44.7013 537.264 44.5787 537.595 44.472C537.925 44.3547 538.304 44.2587 538.731 44.184C539.157 44.1093 539.595 44.072 540.043 44.072ZM540.283 48.904C540.453 48.7973 540.624 48.6693 540.795 48.52C540.976 48.3707 541.131 48.2107 541.259 48.04C541.397 47.8587 541.509 47.6667 541.595 47.464C541.68 47.2613 541.723 47.0533 541.723 46.84C541.723 46.4027 541.563 46.0987 541.243 45.928C540.933 45.7573 540.533 45.672 540.043 45.672C539.616 45.672 539.243 45.7147 538.923 45.8C538.613 45.8853 538.4 45.96 538.283 46.024C538.773 46.3333 539.189 46.7387 539.531 47.24C539.883 47.7307 540.133 48.2853 540.283 48.904ZM550.484 42.76C550.377 42.76 550.324 42.7067 550.324 42.6V41.224C550.324 41.1173 550.377 41.064 550.484 41.064H552.02C552.127 41.064 552.18 41.1173 552.18 41.224V42.6C552.18 42.7067 552.127 42.76 552.02 42.76H550.484ZM551.14 45.672C550.543 45.672 549.956 45.7627 549.38 45.944C548.804 46.1253 548.292 46.3227 547.844 46.536V48.712C547.844 48.84 547.839 48.9627 547.828 49.08C547.817 49.1973 547.801 49.3093 547.78 49.416H551.252C551.711 49.416 552.079 49.4107 552.356 49.4C552.644 49.3787 552.863 49.32 553.012 49.224C553.172 49.1173 553.279 48.9573 553.332 48.744C553.385 48.52 553.412 48.2107 553.412 47.816C553.412 47.4747 553.375 47.1707 553.3 46.904C553.236 46.6373 553.113 46.4133 552.932 46.232C552.761 46.0507 552.532 45.912 552.244 45.816C551.956 45.72 551.588 45.672 551.14 45.672ZM547.844 44.968C548.345 44.7227 548.9 44.5147 549.508 44.344C550.116 44.1627 550.745 44.072 551.396 44.072C552.089 44.072 552.681 44.1627 553.172 44.344C553.673 44.5253 554.079 44.7813 554.388 45.112C554.708 45.4427 554.937 45.848 555.076 46.328C555.225 46.7973 555.3 47.32 555.3 47.896C555.3 48.536 555.241 49.0587 555.124 49.464C555.017 49.8693 554.836 50.1893 554.58 50.424C554.335 50.648 554.015 50.8027 553.62 50.888C553.225 50.9627 552.745 51 552.18 51H549.188C549.017 51 548.825 51 548.612 51C548.409 50.9893 548.207 50.9733 548.004 50.952C547.812 50.9307 547.636 50.904 547.476 50.872C547.316 50.84 547.199 50.792 547.124 50.728C546.943 50.856 546.735 50.936 546.5 50.968C546.276 50.9893 546.009 51 545.7 51H544.5C544.287 51 544.127 50.952 544.02 50.856C543.913 50.7493 543.86 50.5467 543.86 50.248C543.86 49.9067 543.913 49.6827 544.02 49.576C544.116 49.4693 544.276 49.416 544.5 49.416H545.332C545.503 49.416 545.636 49.3947 545.732 49.352C545.828 49.2987 545.897 49.2187 545.94 49.112C545.993 49.0053 546.02 48.872 546.02 48.712C546.031 48.5413 546.036 48.3387 546.036 48.104V44.456C546.036 44.3493 546.089 44.296 546.196 44.296H547.684C547.791 44.296 547.844 44.3493 547.844 44.456V44.968ZM558.957 50.84C558.957 50.9467 558.904 51 558.797 51H557.309C557.203 51 557.149 50.9467 557.149 50.84V40.28C557.149 40.1733 557.203 40.12 557.309 40.12H558.797C558.904 40.12 558.957 40.1733 558.957 40.28V50.84Z" fill="#B1B8C0"/>
<path fill-rule="evenodd" clip-rule="evenodd" d="M580 33.25C580.108 33.2499 580.215 33.2733 580.314 33.3185C580.412 33.3638 580.5 33.4298 580.57 33.512L583.57 37.012C583.699 37.1632 583.763 37.3596 583.748 37.558C583.733 37.7564 583.639 37.9406 583.488 38.07C583.337 38.1994 583.14 38.2635 582.942 38.2481C582.744 38.2327 582.559 38.1392 582.43 37.988L580.75 36.028V47C580.75 47.1989 580.671 47.3897 580.53 47.5303C580.39 47.671 580.199 47.75 580 47.75C579.801 47.75 579.61 47.671 579.47 47.5303C579.329 47.3897 579.25 47.1989 579.25 47V36.027L577.57 37.988C577.506 38.0629 577.428 38.1244 577.34 38.169C577.252 38.2136 577.156 38.2405 577.058 38.2481C576.96 38.2557 576.861 38.2439 576.767 38.2134C576.674 38.1828 576.587 38.1341 576.512 38.07C576.437 38.0059 576.376 37.9277 576.331 37.8399C576.286 37.752 576.259 37.6562 576.252 37.558C576.244 37.4597 576.256 37.361 576.287 37.2673C576.317 37.1736 576.366 37.0869 576.43 37.012L579.43 33.512C579.5 33.4298 579.588 33.3638 579.686 33.3185C579.785 33.2733 579.892 33.2499 580 33.25ZM574.996 40.252C575.195 40.2509 575.386 40.3289 575.528 40.4688C575.669 40.6087 575.749 40.7991 575.75 40.998C575.751 41.1969 575.673 41.3881 575.533 41.5295C575.393 41.6709 575.203 41.7509 575.004 41.752C573.911 41.758 573.136 41.786 572.547 41.894C571.981 41.999 571.652 42.166 571.409 42.409C571.132 42.686 570.952 43.075 570.853 43.809C570.752 44.564 570.75 45.565 570.75 47V48C570.75 49.436 570.752 50.437 570.853 51.192C570.952 51.926 571.133 52.314 571.409 52.592C571.686 52.868 572.074 53.048 572.809 53.147C573.563 53.249 574.565 53.25 576 53.25H584C585.435 53.25 586.436 53.249 587.192 53.147C587.926 53.048 588.314 52.868 588.591 52.591C588.868 52.314 589.048 51.926 589.147 51.192C589.248 50.437 589.25 49.436 589.25 48V47C589.25 45.565 589.248 44.564 589.147 43.808C589.048 43.075 588.867 42.686 588.591 42.409C588.347 42.166 588.019 41.999 587.453 41.894C586.864 41.786 586.089 41.758 584.996 41.752C584.898 41.7515 584.8 41.7316 584.709 41.6934C584.618 41.6552 584.536 41.5995 584.467 41.5295C584.398 41.4595 584.343 41.3765 584.306 41.2853C584.268 41.1941 584.249 41.0965 584.25 40.998C584.251 40.8995 584.27 40.8021 584.309 40.7113C584.347 40.6205 584.402 40.5381 584.472 40.4688C584.543 40.3996 584.625 40.3448 584.717 40.3076C584.808 40.2704 584.906 40.2515 585.004 40.252C586.086 40.258 586.987 40.284 587.724 40.419C588.482 40.559 589.127 40.824 589.652 41.349C590.254 41.95 590.512 42.709 590.634 43.609C590.75 44.475 590.75 45.578 590.75 46.945V48.055C590.75 49.423 590.75 50.525 590.634 51.392C590.512 52.292 590.254 53.05 589.652 53.652C589.05 54.254 588.292 54.512 587.392 54.634C586.525 54.75 585.422 54.75 584.055 54.75H575.945C574.578 54.75 573.475 54.75 572.608 54.634C571.708 54.513 570.95 54.254 570.348 53.652C569.746 53.05 569.488 52.292 569.367 51.392C569.25 50.525 569.25 49.422 569.25 48.055V46.945C569.25 45.578 569.25 44.475 569.367 43.608C569.487 42.708 569.747 41.95 570.348 41.348C570.873 40.824 571.518 40.558 572.276 40.419C573.013 40.284 573.914 40.258 574.996 40.252Z" fill="#B1B8C0"/>
</svg>
