<svg width="153" height="145" viewBox="0 0 153 145" fill="none" xmlns="http://www.w3.org/2000/svg">
<rect x="0.454884" y="0.454884" width="152.09" height="144.09" rx="14.1014" fill="white" stroke="#E7E7E7" stroke-width="0.909768"/>
<mask id="mask0_32_28" style="mask-type:luminance" maskUnits="userSpaceOnUse" x="12" y="13" width="23" height="22">
<path d="M23.9981 34C25.3115 34.0017 26.6124 33.7438 27.8259 33.2412C29.0393 32.7385 30.1415 32.001 31.0691 31.071C31.999 30.1435 32.7366 29.0413 33.2392 27.8278C33.7419 26.6143 33.9998 25.3135 33.9981 24C33.9997 22.6865 33.7418 21.3857 33.2392 20.1722C32.7365 18.9587 31.999 17.8566 31.0691 16.929C30.1415 15.999 29.0393 15.2615 27.8259 14.7589C26.6124 14.2562 25.3115 13.9983 23.9981 14C22.6846 13.9983 21.3837 14.2562 20.1703 14.7589C18.9568 15.2615 17.8546 15.999 16.9271 16.929C15.9971 17.8566 15.2596 18.9587 14.7569 20.1722C14.2543 21.3857 13.9964 22.6865 13.9981 24C13.9964 25.3135 14.2542 26.6143 14.7569 27.8278C15.2596 29.0413 15.9971 30.1435 16.9271 31.071C17.8546 32.001 18.9568 32.7385 20.1703 33.2411C21.3837 33.7438 22.6846 34.0017 23.9981 34Z" fill="white"/>
<path fill-rule="evenodd" clip-rule="evenodd" d="M23.998 13C25.4428 12.9983 26.8737 13.2821 28.2086 13.835C29.5433 14.3879 30.7557 15.199 31.7761 16.2219C32.799 17.2423 33.6101 18.4547 34.163 19.7895C34.716 21.1243 34.9997 22.5552 34.9981 24C34.9998 25.4448 34.716 26.8757 34.1631 28.2105C33.6102 29.5453 32.799 30.7577 31.7762 31.7781C30.7558 32.801 29.5434 33.6121 28.2086 34.165C26.8737 34.718 25.4428 35.0017 23.998 35C22.5533 35.0017 21.1224 34.7179 19.7876 34.165C18.4528 33.6121 17.2404 32.8009 16.22 31.7781C15.1971 30.7577 14.3859 29.5453 13.833 28.2105C13.2801 26.8757 12.9964 25.4448 12.9981 24C12.9964 22.5552 13.2801 21.1243 13.8331 19.7895C14.386 18.4547 15.1971 17.2423 16.2199 16.2219C17.2404 15.1991 18.4528 14.3879 19.7876 13.835C21.1224 13.2821 22.5533 12.9983 23.998 13ZM27.4432 15.6827C26.3514 15.2305 25.1811 14.9985 23.9994 15H23.9968C22.8151 14.9985 21.6447 15.2305 20.553 15.6828C19.4612 16.135 18.4696 16.7985 17.6351 17.6352L17.6332 17.637C16.7966 18.4715 16.133 19.4632 15.6808 20.5549C15.2286 21.6467 14.9965 22.817 14.9981 23.9987V24.0013C14.9965 25.183 15.2285 26.3534 15.6808 27.4451C16.133 28.5369 16.7965 29.5285 17.6332 30.363L17.6351 30.3648C18.4696 31.2015 19.4612 31.865 20.553 32.3173C21.6447 32.7695 22.8151 33.0015 23.9968 33H23.9994C25.1811 33.0015 26.3514 32.7695 27.4432 32.3173C28.5349 31.8651 29.5265 31.2015 30.361 30.3648L30.3629 30.363C31.1996 29.5285 31.8631 28.5369 32.3153 27.4451C32.7676 26.3534 32.9996 25.183 32.9981 24.0013V23.9987C32.9996 22.817 32.7675 21.6467 32.3153 20.5549C31.8631 19.4632 31.1995 18.4715 30.3629 17.637L30.361 17.6352C29.5265 16.7985 28.5349 16.135 27.4432 15.6827Z" fill="white"/>
<path fill-rule="evenodd" clip-rule="evenodd" d="M29.7049 20.2931C30.0955 20.6836 30.0955 21.3168 29.7049 21.7073L23.7049 27.7073C23.3144 28.0979 22.6813 28.0979 22.2907 27.7073L19.2907 24.7073C18.9002 24.3168 18.9002 23.6836 19.2907 23.2931C19.6813 22.9026 20.3144 22.9026 20.7049 23.2931L22.9978 25.586L28.2907 20.2931C28.6812 19.9026 29.3144 19.9026 29.7049 20.2931Z" fill="black"/>
</mask>
<g mask="url(#mask0_32_28)">
<path d="M11.999 12.0005H35.999V36.0005H11.999V12.0005Z" fill="#E7E7E7"/>
</g>
<path d="M38.2833 116.292C38.19 116.292 38.1433 116.245 38.1433 116.152V114.948C38.1433 114.855 38.19 114.808 38.2833 114.808H39.4593C39.5526 114.808 39.5993 114.855 39.5993 114.948V116.152C39.5993 116.245 39.5526 116.292 39.4593 116.292H38.2833ZM36.4633 116.292C36.37 116.292 36.3233 116.245 36.3233 116.152V114.948C36.3233 114.855 36.37 114.808 36.4633 114.808H37.6393C37.7326 114.808 37.7793 114.855 37.7793 114.948V116.152C37.7793 116.245 37.7326 116.292 37.6393 116.292H36.4633ZM39.5993 112.4C40.1593 112.4 40.542 112.33 40.7473 112.19C40.9526 112.05 41.0553 111.873 41.0553 111.658C41.0553 111.481 40.9993 111.327 40.8873 111.196C40.7846 111.075 40.6166 110.958 40.3833 110.846C40.1593 110.725 39.87 110.603 39.5153 110.482C39.17 110.351 38.7593 110.197 38.2833 110.02C38.1993 109.992 38.1713 109.936 38.1993 109.852L38.5773 108.746C38.6053 108.653 38.6613 108.62 38.7453 108.648C39.044 108.76 39.3286 108.877 39.5993 108.998C39.87 109.11 40.136 109.213 40.3973 109.306C40.6586 109.39 40.9153 109.465 41.1673 109.53C41.4193 109.586 41.6806 109.614 41.9513 109.614H43.3513C43.538 109.614 43.678 109.661 43.7713 109.754C43.8646 109.847 43.9113 110.015 43.9113 110.258C43.9113 110.529 43.8646 110.72 43.7713 110.832C43.6873 110.944 43.5473 111 43.3513 111H42.3853C42.432 111.075 42.4833 111.191 42.5393 111.35C42.6046 111.518 42.6373 111.695 42.6373 111.882C42.6373 112.143 42.586 112.391 42.4833 112.624C42.3806 112.857 42.2173 113.063 41.9933 113.24C41.7786 113.417 41.494 113.557 41.1393 113.66C40.794 113.772 40.3693 113.828 39.8653 113.828H36.6733C35.46 113.828 34.5546 113.548 33.9573 112.988C33.3693 112.428 33.0753 111.667 33.0753 110.706C33.0753 110.445 33.0986 110.183 33.1453 109.922C33.2013 109.651 33.2713 109.395 33.3553 109.152C33.4393 108.9 33.5326 108.667 33.6353 108.452C33.7473 108.228 33.864 108.032 33.9853 107.864C34.032 107.789 34.0973 107.78 34.1813 107.836L35.2873 108.41C35.362 108.457 35.376 108.517 35.3293 108.592C35.1706 108.853 35.0213 109.157 34.8813 109.502C34.7506 109.847 34.6853 110.202 34.6853 110.566C34.6853 110.921 34.746 111.215 34.8673 111.448C34.998 111.681 35.166 111.868 35.3713 112.008C35.5766 112.148 35.81 112.246 36.0713 112.302C36.3326 112.367 36.5986 112.4 36.8693 112.4H39.5993ZM44.9114 103.79C44.8181 103.79 44.7714 103.743 44.7714 103.65V102.446C44.7714 102.353 44.8181 102.306 44.9114 102.306H46.2554C46.3488 102.306 46.3954 102.353 46.3954 102.446V103.65C46.3954 103.743 46.3488 103.79 46.2554 103.79H44.9114ZM43.4274 111C43.2408 111 43.1008 110.967 43.0074 110.902C42.9141 110.837 42.8674 110.706 42.8674 110.51C42.8674 110.277 42.9141 110.071 43.0074 109.894C43.0914 109.707 43.2314 109.614 43.4274 109.614H44.1134C44.3468 109.614 44.5148 109.563 44.6174 109.46C44.7294 109.348 44.7854 109.152 44.7854 108.872V105.33C44.7854 105.237 44.8321 105.19 44.9254 105.19H46.2274C46.3208 105.19 46.3674 105.237 46.3674 105.33V109.236C46.3674 109.843 46.2414 110.291 45.9894 110.58C45.7374 110.86 45.3174 111 44.7294 111H43.4274ZM50.5205 111C50.0818 111 49.6898 110.953 49.3445 110.86C49.0085 110.757 48.7238 110.594 48.4905 110.37C48.2572 110.137 48.0752 109.838 47.9445 109.474C47.8232 109.11 47.7625 108.662 47.7625 108.13C47.7625 107.561 47.8372 107.075 47.9865 106.674C48.1452 106.263 48.3552 105.932 48.6165 105.68C48.8872 105.419 49.1952 105.232 49.5405 105.12C49.8858 104.999 50.2498 104.938 50.6325 104.938C51.0525 104.938 51.4352 104.994 51.7805 105.106C52.1352 105.218 52.4385 105.395 52.6905 105.638C52.9425 105.881 53.1385 106.198 53.2785 106.59C53.4185 106.982 53.4885 107.463 53.4885 108.032V111.308C53.4885 112.185 53.2692 112.825 52.8305 113.226C52.3918 113.627 51.7525 113.828 50.9125 113.828H49.0225C48.9292 113.828 48.8825 113.781 48.8825 113.688V112.568C48.8825 112.475 48.9292 112.428 49.0225 112.428H50.6605C50.8472 112.428 51.0198 112.409 51.1785 112.372C51.3372 112.344 51.4725 112.279 51.5845 112.176C51.6965 112.073 51.7805 111.929 51.8365 111.742C51.9018 111.555 51.9345 111.308 51.9345 111H50.5205ZM50.6465 106.338C50.2172 106.338 49.8858 106.497 49.6525 106.814C49.4192 107.131 49.3025 107.556 49.3025 108.088C49.3025 108.676 49.4192 109.077 49.6525 109.292C49.8952 109.507 50.2405 109.614 50.6885 109.614H51.9345V108.018C51.9345 107.467 51.8318 107.052 51.6265 106.772C51.4212 106.483 51.0945 106.338 50.6465 106.338ZM55.2733 101.62C55.2733 101.527 55.3199 101.48 55.4133 101.48H56.7153C56.8086 101.48 56.8553 101.527 56.8553 101.62V108.872C56.8553 109.152 56.9066 109.348 57.0093 109.46C57.1213 109.563 57.2939 109.614 57.5273 109.614H58.0173C58.2039 109.614 58.3439 109.67 58.4373 109.782C58.5306 109.885 58.5773 110.067 58.5773 110.328C58.5773 110.617 58.5306 110.804 58.4373 110.888C58.3533 110.963 58.2133 111 58.0173 111H56.9113C56.3233 111 55.9033 110.86 55.6513 110.58C55.3993 110.291 55.2733 109.843 55.2733 109.236V101.62ZM61.9337 104.938C63.007 104.938 63.791 105.139 64.2857 105.54C64.7803 105.941 65.0277 106.469 65.0277 107.122C65.0277 107.402 64.981 107.668 64.8877 107.92C64.8037 108.163 64.6917 108.391 64.5517 108.606C64.4117 108.811 64.253 108.998 64.0757 109.166C63.8983 109.334 63.7257 109.474 63.5577 109.586C63.6323 109.605 63.7117 109.614 63.7957 109.614C63.889 109.614 63.987 109.614 64.0897 109.614H65.8397C66.0543 109.614 66.199 109.67 66.2737 109.782C66.3483 109.894 66.3857 110.081 66.3857 110.342C66.3857 110.603 66.339 110.781 66.2457 110.874C66.1617 110.958 66.0263 111 65.8397 111H63.7537C63.4177 111 63.0957 110.972 62.7877 110.916C62.489 110.851 62.2043 110.734 61.9337 110.566C61.6257 110.734 61.299 110.851 60.9537 110.916C60.6083 110.972 60.3003 111 60.0297 111H58.0137C57.8363 111 57.701 110.953 57.6077 110.86C57.5143 110.767 57.4677 110.594 57.4677 110.342C57.4677 110.099 57.5003 109.917 57.5657 109.796C57.6217 109.675 57.771 109.614 58.0137 109.614H59.6517C59.801 109.614 59.969 109.609 60.1557 109.6C60.3423 109.581 60.5617 109.544 60.8137 109.488C60.739 109.18 60.6363 108.914 60.5057 108.69C60.3843 108.466 60.2443 108.27 60.0857 108.102C59.927 107.925 59.7543 107.771 59.5677 107.64C59.3903 107.5 59.2083 107.365 59.0217 107.234C58.919 107.159 58.8583 107.094 58.8397 107.038C58.8303 106.973 58.8257 106.903 58.8257 106.828V105.946C58.8257 105.843 58.9143 105.731 59.0917 105.61C59.269 105.489 59.5023 105.381 59.7917 105.288C60.081 105.185 60.4123 105.101 60.7857 105.036C61.159 104.971 61.5417 104.938 61.9337 104.938ZM62.1437 109.166C62.293 109.073 62.4423 108.961 62.5917 108.83C62.7503 108.699 62.8857 108.559 62.9977 108.41C63.119 108.251 63.217 108.083 63.2917 107.906C63.3663 107.729 63.4037 107.547 63.4037 107.36C63.4037 106.977 63.2637 106.711 62.9837 106.562C62.713 106.413 62.363 106.338 61.9337 106.338C61.5603 106.338 61.2337 106.375 60.9537 106.45C60.683 106.525 60.4963 106.59 60.3937 106.646C60.823 106.917 61.187 107.271 61.4857 107.71C61.7937 108.139 62.013 108.625 62.1437 109.166ZM68.606 103.79C68.5127 103.79 68.466 103.743 68.466 103.65V102.446C68.466 102.353 68.5127 102.306 68.606 102.306H69.782C69.8753 102.306 69.922 102.353 69.922 102.446V103.65C69.922 103.743 69.8753 103.79 69.782 103.79H68.606ZM66.786 103.79C66.6927 103.79 66.646 103.743 66.646 103.65V102.446C66.646 102.353 66.6927 102.306 66.786 102.306H67.962C68.0553 102.306 68.102 102.353 68.102 102.446V103.65C68.102 103.743 68.0553 103.79 67.962 103.79H66.786ZM68.872 110.286C68.7413 110.557 68.5407 110.743 68.27 110.846C68.0087 110.949 67.654 111 67.206 111H65.904C65.7173 111 65.5773 110.958 65.484 110.874C65.3907 110.781 65.344 110.603 65.344 110.342C65.344 110.071 65.3907 109.885 65.484 109.782C65.568 109.67 65.708 109.614 65.904 109.614H66.814C66.982 109.614 67.108 109.591 67.192 109.544C67.2853 109.488 67.3507 109.409 67.388 109.306C67.4347 109.194 67.4627 109.054 67.472 108.886C67.4813 108.709 67.486 108.494 67.486 108.242V105.33C67.486 105.274 67.5093 105.237 67.556 105.218C67.612 105.199 67.668 105.19 67.724 105.19H68.928C69.0213 105.19 69.068 105.237 69.068 105.33V108.746C69.068 109.026 69.1707 109.241 69.376 109.39C69.5907 109.539 69.8753 109.614 70.23 109.614H70.468C70.6547 109.614 70.7947 109.665 70.888 109.768C70.9813 109.871 71.028 110.043 71.028 110.286C71.028 110.557 70.9813 110.743 70.888 110.846C70.804 110.949 70.664 111 70.468 111C70.104 111 69.7867 110.958 69.516 110.874C69.2453 110.781 69.0307 110.585 68.872 110.286ZM70.4688 111C70.2821 111 70.1421 110.958 70.0487 110.874C69.9554 110.781 69.9087 110.599 69.9087 110.328C69.9087 110.067 69.9554 109.885 70.0487 109.782C70.1327 109.67 70.2727 109.614 70.4688 109.614H71.1548C71.3881 109.614 71.5561 109.563 71.6588 109.46C71.7708 109.348 71.8268 109.152 71.8268 108.872V101.62C71.8268 101.527 71.8734 101.48 71.9668 101.48H73.2688C73.3621 101.48 73.4088 101.527 73.4088 101.62V109.236C73.4088 109.843 73.2828 110.291 73.0308 110.58C72.7788 110.86 72.3588 111 71.7708 111H70.4688ZM76.8162 110.86C76.8162 110.953 76.7696 111 76.6762 111H75.3742C75.2809 111 75.2342 110.953 75.2342 110.86V101.62C75.2342 101.527 75.2809 101.48 75.3742 101.48H76.6762C76.7696 101.48 76.8162 101.527 76.8162 101.62V110.86ZM92.0691 108.788C92.0878 109.059 92.1998 109.264 92.4051 109.404C92.6104 109.544 92.8858 109.614 93.2311 109.614H93.4691C93.6558 109.614 93.7958 109.665 93.8891 109.768C93.9824 109.871 94.0291 110.043 94.0291 110.286C94.0291 110.557 93.9824 110.743 93.8891 110.846C93.8051 110.949 93.6651 111 93.4691 111C93.1144 111 92.8018 110.958 92.5311 110.874C92.2604 110.781 92.0458 110.585 91.8871 110.286C91.7564 110.547 91.5604 110.734 91.2991 110.846C91.0471 110.949 90.7018 111 90.2631 111H83.4171C82.8291 111 82.4091 110.86 82.1571 110.58C81.9051 110.291 81.7791 109.843 81.7791 109.236V106.226C81.7791 106.133 81.8258 106.086 81.9191 106.086H83.2071C83.3004 106.086 83.3471 106.133 83.3471 106.226V108.872C83.3471 109.152 83.3984 109.348 83.5011 109.46C83.6131 109.563 83.7858 109.614 84.0191 109.614H89.8151C89.9738 109.614 90.0951 109.595 90.1791 109.558C90.2724 109.511 90.3424 109.441 90.3891 109.348C90.4358 109.255 90.4638 109.129 90.4731 108.97C90.4918 108.811 90.5011 108.62 90.5011 108.396V105.33C90.5011 105.237 90.5478 105.19 90.6411 105.19H91.9291C92.0224 105.19 92.0691 105.237 92.0691 105.33V108.788ZM86.2311 113.688C86.1378 113.688 86.0911 113.641 86.0911 113.548V112.344C86.0911 112.251 86.1378 112.204 86.2311 112.204H87.5751C87.6684 112.204 87.7151 112.251 87.7151 112.344V113.548C87.7151 113.641 87.6684 113.688 87.5751 113.688H86.2311ZM93.3965 111C93.2098 111 93.0698 110.958 92.9765 110.874C92.8832 110.781 92.8365 110.608 92.8365 110.356C92.8365 110.085 92.8832 109.894 92.9765 109.782C93.0605 109.67 93.2005 109.614 93.3965 109.614H94.3065C94.5398 109.614 94.7078 109.563 94.8105 109.46C94.9225 109.348 94.9785 109.152 94.9785 108.872V105.33C94.9785 105.237 95.0252 105.19 95.1185 105.19H96.4205C96.5138 105.19 96.5605 105.237 96.5605 105.33V109.236C96.5605 109.843 96.4345 110.291 96.1825 110.58C95.9305 110.86 95.5105 111 94.9225 111H93.3965ZM95.7485 113.688C95.6552 113.688 95.6085 113.641 95.6085 113.548V112.344C95.6085 112.251 95.6552 112.204 95.7485 112.204H96.9245C97.0178 112.204 97.0645 112.251 97.0645 112.344V113.548C97.0645 113.641 97.0178 113.688 96.9245 113.688H95.7485ZM93.9285 113.688C93.8352 113.688 93.7885 113.641 93.7885 113.548V112.344C93.7885 112.251 93.8352 112.204 93.9285 112.204H95.1045C95.1978 112.204 95.2445 112.251 95.2445 112.344V113.548C95.2445 113.641 95.1978 113.688 95.1045 113.688H93.9285ZM97.7067 113.828C97.6134 113.828 97.5667 113.781 97.5667 113.688V112.568C97.5667 112.475 97.6134 112.428 97.7067 112.428H98.0147C98.4067 112.428 98.6867 112.33 98.8547 112.134C99.0321 111.938 99.1207 111.639 99.1207 111.238V105.33C99.1207 105.237 99.1674 105.19 99.2607 105.19H100.563C100.656 105.19 100.703 105.237 100.703 105.33V111.266C100.703 112.974 99.8767 113.828 98.2247 113.828H97.7067ZM103.029 106.338C102.935 106.338 102.889 106.291 102.889 106.198V105.078C102.889 104.985 102.935 104.938 103.029 104.938H105.157C105.941 104.938 106.561 105.134 107.019 105.526C107.485 105.918 107.719 106.557 107.719 107.444V108.76C107.719 109.031 107.821 109.241 108.027 109.39C108.232 109.539 108.512 109.614 108.867 109.614H109.105C109.291 109.614 109.431 109.665 109.525 109.768C109.618 109.871 109.665 110.043 109.665 110.286C109.665 110.557 109.618 110.743 109.525 110.846C109.441 110.949 109.301 111 109.105 111C108.713 111 108.372 110.949 108.083 110.846C107.803 110.743 107.583 110.529 107.425 110.202C107.247 110.519 107.005 110.734 106.697 110.846C106.398 110.949 106.011 111 105.535 111H102.399C102.305 111 102.259 110.953 102.259 110.86V109.754C102.259 109.661 102.305 109.614 102.399 109.614H105.003C105.255 109.614 105.455 109.595 105.605 109.558C105.754 109.521 105.866 109.46 105.941 109.376C106.025 109.283 106.076 109.166 106.095 109.026C106.123 108.886 106.137 108.713 106.137 108.508V107.57C106.137 107.141 106.015 106.828 105.773 106.632C105.539 106.436 105.185 106.338 104.709 106.338H103.029ZM111.877 103.79C111.784 103.79 111.737 103.743 111.737 103.65V102.446C111.737 102.353 111.784 102.306 111.877 102.306H113.053C113.147 102.306 113.193 102.353 113.193 102.446V103.65C113.193 103.743 113.147 103.79 113.053 103.79H111.877ZM110.057 103.79C109.964 103.79 109.917 103.743 109.917 103.65V102.446C109.917 102.353 109.964 102.306 110.057 102.306H111.233C111.327 102.306 111.373 102.353 111.373 102.446V103.65C111.373 103.743 111.327 103.79 111.233 103.79H110.057ZM112.143 110.286C112.013 110.557 111.812 110.743 111.541 110.846C111.28 110.949 110.925 111 110.477 111H109.175C108.989 111 108.849 110.958 108.755 110.874C108.662 110.781 108.615 110.603 108.615 110.342C108.615 110.071 108.662 109.885 108.755 109.782C108.839 109.67 108.979 109.614 109.175 109.614H110.085C110.253 109.614 110.379 109.591 110.463 109.544C110.557 109.488 110.622 109.409 110.659 109.306C110.706 109.194 110.734 109.054 110.743 108.886C110.753 108.709 110.757 108.494 110.757 108.242V105.33C110.757 105.274 110.781 105.237 110.827 105.218C110.883 105.199 110.939 105.19 110.995 105.19H112.199C112.293 105.19 112.339 105.237 112.339 105.33V108.746C112.339 109.026 112.442 109.241 112.647 109.39C112.862 109.539 113.147 109.614 113.501 109.614H113.739C113.926 109.614 114.066 109.665 114.159 109.768C114.253 109.871 114.299 110.043 114.299 110.286C114.299 110.557 114.253 110.743 114.159 110.846C114.075 110.949 113.935 111 113.739 111C113.375 111 113.058 110.958 112.787 110.874C112.517 110.781 112.302 110.585 112.143 110.286ZM113.74 111C113.554 111 113.414 110.958 113.32 110.874C113.227 110.781 113.18 110.599 113.18 110.328C113.18 110.067 113.227 109.885 113.32 109.782C113.404 109.67 113.544 109.614 113.74 109.614H114.426C114.66 109.614 114.828 109.563 114.93 109.46C115.042 109.348 115.098 109.152 115.098 108.872V101.62C115.098 101.527 115.145 101.48 115.238 101.48H116.54C116.634 101.48 116.68 101.527 116.68 101.62V109.236C116.68 109.843 116.554 110.291 116.302 110.58C116.05 110.86 115.63 111 115.042 111H113.74ZM120.088 110.86C120.088 110.953 120.041 111 119.948 111H118.646C118.552 111 118.506 110.953 118.506 110.86V101.62C118.506 101.527 118.552 101.48 118.646 101.48H119.948C120.041 101.48 120.088 101.527 120.088 101.62V110.86Z" fill="#1A1A1A"/>
<path fill-rule="evenodd" clip-rule="evenodd" d="M64 41H95V46H93V43H66V66H87.387V68H64V41ZM94 54C94.7956 54 95.5587 53.6839 96.1213 53.1213C96.6839 52.5587 97 51.7956 97 51C97 50.2044 96.6839 49.4413 96.1213 48.8787C95.5587 48.3161 94.7956 48 94 48C93.2044 48 92.4413 48.3161 91.8787 48.8787C91.3161 49.4413 91 50.2044 91 51C91 51.7956 91.3161 52.5587 91.8787 53.1213C92.4413 53.6839 93.2044 54 94 54ZM96.031 56.01C97.33 56.01 98.358 56.594 99.031 57.496C99.66 58.341 99.926 59.386 99.986 60.351C100.045 61.3409 99.9099 62.3327 99.589 63.271C99.289 64.141 98.782 65.041 98 65.658V75.5C98.0007 75.8769 97.8596 76.2402 97.6046 76.5177C97.3496 76.7953 96.9995 76.9666 96.6239 76.9978C96.2483 77.0289 95.8748 76.9175 95.5776 76.6857C95.2804 76.454 95.0813 76.1189 95.02 75.747L93.73 68H93.432L91.974 75.776C91.9048 76.143 91.7011 76.471 91.4029 76.6958C91.1046 76.9206 90.7333 77.026 90.3614 76.9915C89.9895 76.957 89.6439 76.785 89.3921 76.5092C89.1403 76.2333 89.0005 75.8735 89 75.5V61.233C88.8 61.5376 88.6027 61.844 88.408 62.152L88.33 62.275L88.31 62.307L88.305 62.316C88.1702 62.5324 87.9825 62.7109 87.7596 62.8346C87.5367 62.9583 87.2859 63.0231 87.031 63.023H82.031C81.6332 63.023 81.2516 62.865 80.9703 62.5837C80.689 62.3024 80.531 61.9208 80.531 61.523C80.531 61.1252 80.689 60.7436 80.9703 60.4623C81.2516 60.181 81.6332 60.023 82.031 60.023H86.208C86.451 59.647 86.771 59.159 87.107 58.669C87.457 58.158 87.843 57.617 88.187 57.193C88.354 56.986 88.541 56.77 88.729 56.593C88.821 56.506 88.949 56.393 89.105 56.293C89.3803 56.1123 89.7017 56.0144 90.031 56.011L96.031 56.01Z" fill="#A77646"/>
</svg>
